<svg height="48" viewBox="0 0 48 48" width="48" xmlns="http://www.w3.org/2000/svg" xmlns:xlink="http://www.w3.org/1999/xlink"><defs><path id="a" d="m14.732306 36.6454508c0 4.006685-3.2979372 7.2545446-7.36615301 7.2545446-4.0682158 0-7.36615299-3.2478596-7.36615299-7.2545446s3.29793719-7.2545446 7.36615299-7.2545446c4.06821581 0 7.36615301 3.2478596 7.36615301 7.2545446z"/><filter id="b" height="106.9%" width="106.8%" x="-3.4%" y="-3.4%"><feGaussianBlur in="SourceAlpha" result="shadowBlurInner1" stdDeviation=".5"/><feOffset in="shadowBlurInner1" result="shadowOffsetInner1"/><feComposite in="shadowOffsetInner1" in2="SourceAlpha" k2="-1" k3="1" operator="arithmetic" result="shadowInnerInner1"/><feColorMatrix in="shadowInnerInner1" values="0 0 0 0 1   0 0 0 0 1   0 0 0 0 1  0 0 0 0.5 0"/></filter><path id="c" d="m32.9174962 29.4362471c0 7.9879666-6.5515746 14.4637483-14.6333682 14.4637483-.8855793 0-1.752757-.0777427-2.5949482-.2267193 1.6187879-1.8900503 2.5949482-4.3347853 2.5949482-7.0051549 0-5.9910653-4.9137267-10.8478112-10.97508104-10.8478112-1.15688329 0-2.27195152.1769278-3.31904742.5048933 1.43993063-6.4928851 7.29283156-11.3527046 14.29412846-11.3527046 8.0817936 0 14.6333682 6.4756371 14.6333682 14.4637484z"/><filter id="d" height="103.5%" width="103.5%" x="-1.7%" y="-1.7%"><feGaussianBlur in="SourceAlpha" result="shadowBlurInner1" stdDeviation=".5"/><feOffset in="shadowBlurInner1" result="shadowOffsetInner1"/><feComposite in="shadowOffsetInner1" in2="SourceAlpha" k2="-1" k3="1" operator="arithmetic" result="shadowInnerInner1"/><feColorMatrix in="shadowInnerInner1" values="0 0 0 0 1   0 0 0 0 1   0 0 0 0 1  0 0 0 0.5 0"/></filter><path id="e" d="m10.9724987 12.9112923c2.3177094-1.0529449 4.8951719-1.639825 7.6106957-1.639825 10.1126088 0 18.3104863 8.1388806 18.3104863 18.1786683 0 5.8913428-2.8227502 11.1278899-7.198599 14.4498598 10.2059193-.9769216 18.1849128-9.5150786 18.1849128-19.9034603 0-11.0437955-9.0175664-19.9965351-20.1415387-19.9965351-6.9937408 0-13.1549388 3.53884135-16.7659571 8.9112923z"/><filter id="f" height="102.5%" width="102.7%" x="-1.4%" y="-1.3%"><feGaussianBlur in="SourceAlpha" result="shadowBlurInner1" stdDeviation=".5"/><feOffset in="shadowBlurInner1" result="shadowOffsetInner1"/><feComposite in="shadowOffsetInner1" in2="SourceAlpha" k2="-1" k3="1" operator="arithmetic" result="shadowInnerInner1"/><feColorMatrix in="shadowInnerInner1" values="0 0 0 0 1   0 0 0 0 1   0 0 0 0 1  0 0 0 0.5 0"/></filter></defs><g fill="none" fill-rule="evenodd"><use fill="#9b00f5" xlink:href="#a"/><use fill="#000" filter="url(#b)" xlink:href="#a"/><use fill="#f6fafb" xlink:href="#c"/><use fill="#9b00f5" fill-opacity=".62" xlink:href="#c"/><use fill="#000" filter="url(#d)" xlink:href="#c"/><use fill="#f6fafb" xlink:href="#e"/><use fill="#9b00f5" fill-opacity=".46" xlink:href="#e"/><use fill="#000" filter="url(#f)" xlink:href="#e"/></g></svg>