<svg height="60" viewBox="0 0 59 60" width="59" xmlns="http://www.w3.org/2000/svg"><g fill="none" fill-rule="evenodd" transform="translate(0 .5)"><circle cx="29.5" cy="29.5" r="27.75" stroke="#404040" stroke-width="3.5"/><path d="m29.2903638 1.75c3.8361887 0 7.4901252.776445 10.8140071 2.180595 3.323882 1.40415 6.3177095 3.43656 8.8309021 5.94738 2.5137483 2.51082 4.5485286 5.500605 5.9543161 8.820615 1.4057876 3.32001 2.1831382 6.970245 2.1831382 10.80141s-.7773506 7.4814-2.1831382 10.80141c-1.4057875 3.32001-3.4405678 6.309795-5.9543161 8.820615-2.5131926 2.511375-5.5070201 4.54323-8.8309021 5.94738-3.3238819 1.40415-6.9778184 2.180595-10.8140071 2.180595-3.8356331 0-7.4901252-.776445-10.8140072-2.180595s-6.3171538-3.436005-8.83090205-5.94738" stroke="#2094fa" stroke-linecap="round" stroke-linejoin="round" stroke-width="3.5"/><path d="m40.0293413 19.5625099c-.3822754-.4805695-1.081996-.5625099-1.565988-.1849196s-.5678244 1.0740838-.1866667 1.5546533c3.9870659 5.0315845 3.9870659 12.0585289 0 17.0901134-.3811577.4816767-.2973253 1.1781703.1866667 1.5557606.2034331.1594516.4471058.2380701.6885429.2380701.3308583 0 .6572455-.1450567.8774451-.4218824 4.6275449-5.8399156 4.6275449-13.9940944 0-19.8317954m-5.7777245 3.4381756c-.4940519.3654099-.598004 1.0585816-.2302595 1.5502241 1.0797605 1.443923 1.6509381 3.1502768 1.6520559 4.9319272-.0011178 1.7805431-.5711777 3.4846823-1.6475849 4.9286053-.3677445.4905352-.2626746 1.1837069.2313773 1.5480095.2000798.1472713.4325748.2170314.6628343.2170314.3409182 0 .6784831-.1539151.8964471-.4473504 1.3636727-1.8259425 2.0857485-3.9862905 2.0868663-6.2462958-.0011178-2.2622199-.7243114-4.4247825-2.0913373-6.2529396-.3688623-.4905352-1.0663473-.5935144-1.5603992-.2292117m-5.4312176-4.0006855c-.4672255 0-.8897405.1339837-1.3424351.5071447l-5.32503 4.4325337h-4.2698602c-1.4788024 0-2.3830739.7917215-2.3830739 2.3596625v6.3725283c0 1.5690483.9042715 2.3607699 2.3830739 2.3607699h4.2698602l5.32503 4.4602162c.4370459.3576588.8752096.5071447 1.3424351.5071447 1.0562874 0 1.7951297-.7618244 1.7951297-1.8381229v-17.3259688c0-1.0751912-.7388423-1.8359083-1.7951297-1.8359083" fill="#fff"/></g></svg>