<svg height="43" viewBox="0 0 460 43" width="460" xmlns="http://www.w3.org/2000/svg" xmlns:xlink="http://www.w3.org/1999/xlink"><defs><path id="a" d="m5.83333333 17.1988005h4.16666667 4.1666667c.9204745 0 1.6666666.746192 1.6666666 1.6666666v11.3415462c.000004.8212932-.5982974 1.5201648-1.4097762 1.6467539-1.474519.2300222-2.9490381.3450333-4.4235571.3450333-1.47451065 0-2.94902131-.1150098-4.42353196-.3450294-.81149226-.1265671-1.40980137-.8254469-1.40980137-1.6467501v-11.3415539c0-.9204746.74619208-1.6666666 1.66666666-1.6666666z"/><filter id="b" height="106.7%" width="108.6%" x="-4.3%" y="-3.3%"><feGaussianBlur in="SourceAlpha" result="shadowBlurInner1" stdDeviation=".5"/><feOffset dx="0" dy="0" in="shadowBlurInner1" result="shadowOffsetInner1"/><feComposite in="shadowOffsetInner1" in2="SourceAlpha" k2="-1" k3="1" operator="arithmetic" result="shadowInnerInner1"/><feColorMatrix in="shadowInnerInner1" type="matrix" values="0 0 0 0 1   0 0 0 0 1   0 0 0 0 1  0 0 0 0.5 0"/></filter><path id="c" d="m32.2875583 1.6657383c.0183562.04797647.0344846.09677592.0483336.14624205.7507773 2.6816461 1.126166 5.36009615 1.126166 8.03535017 0 2.60114258-.3548783 4.94506258-1.0646349 7.03175978-.2923799.8596433-1.2190871 1.3270535-2.0841834 1.0512257l-16.6936256-5.3231237v2.5623835h-7.5v-10c0-.92047458.74619209-1.66666667 1.66666667-1.66666667h4.16666663c.9204746 0 1.6666667.74619209 1.6666667 1.66666667v1.85361652l16.5157215-6.31848779c.859702-.32895947 1.8232895.10132172 2.1522228.96103377z"/><filter id="d" height="105.7%" width="103.7%" x="-1.8%" y="-2.9%"><feGaussianBlur in="SourceAlpha" result="shadowBlurInner1" stdDeviation=".5"/><feOffset dx="0" dy="0" in="shadowBlurInner1" result="shadowOffsetInner1"/><feComposite in="shadowOffsetInner1" in2="SourceAlpha" k2="-1" k3="1" operator="arithmetic" result="shadowInnerInner1"/><feColorMatrix in="shadowInnerInner1" type="matrix" values="0 0 0 0 1   0 0 0 0 1   0 0 0 0 1  0 0 0 0.5 0"/></filter><path id="e" d="m1.7891121 6.08831988 2.57350087 1.8014506v3.33333332l-2.57348437 1.8014391c-.37704024.2639366-.89665329.1722402-1.16058424-.204804-.06571656-.0938808-.11136412-.2003067-.13409007-.3126267-.19900533-.9835584-.29850799-1.9671167-.29850799-2.95067505 0-.98357024.09950507-1.96714047.29851521-2.95071071.09129737-.45107484.53095866-.74275962.98203922-.65149049.11231456.02272511.21873515.06837057.31261137.13408393z"/><filter id="f" height="98.9%" width="124%" x="-12%" y=".6%"><feGaussianBlur in="SourceAlpha" result="shadowBlurInner1" stdDeviation=".5"/><feOffset dx="0" dy="0" in="shadowBlurInner1" result="shadowOffsetInner1"/><feComposite in="shadowOffsetInner1" in2="SourceAlpha" k2="-1" k3="1" operator="arithmetic" result="shadowInnerInner1"/><feColorMatrix in="shadowInnerInner1" type="matrix" values="0 0 0 0 1   0 0 0 0 1   0 0 0 0 1  0 0 0 0.5 0"/></filter><path id="g" d="m37.5 27.5c-.4282196-9.2843036-8.1098604-15.8333333-17.5-15.8333333-9.4176586 0-17.11310071 6.5107665-17.5 15.8333333-.01832427.441534.32475503.8143228.76628906.8326471.01105372.0004587.02211578.0006882.03317902.0006862h33.40476382c.4399578-.000016.7966141-.3566723.7966141-.7966301 0-.0122393-.0002821-.0244769-.000846-.0367032z"/><filter id="h" height="106%" width="102.8%" x="-1.4%" y="-3%"><feGaussianBlur in="SourceAlpha" result="shadowBlurInner1" stdDeviation=".5"/><feOffset dx="0" dy="0" in="shadowBlurInner1" result="shadowOffsetInner1"/><feComposite in="shadowOffsetInner1" in2="SourceAlpha" k2="-1" k3="1" operator="arithmetic" result="shadowInnerInner1"/><feColorMatrix in="shadowInnerInner1" type="matrix" values="0 0 0 0 1   0 0 0 0 1   0 0 0 0 1  0 0 0 0.5 0"/></filter><path id="i" d="m3.33333333 30.8333333h33.33333337c.5245955 0 1.018576.2469903 1.3333333.6666667l.75 1c.345178.4602373.251904 1.1131554-.2083333 1.4583333-.1803085.1352314-.3996144.2083334-.625.2083334h-35.83333337c-.57529661 0-1.04166666-.4663701-1.04166666-1.0416667 0-.2253856.07310195-.4446915.20833333-.625l.75-1c.3147573-.4196764.80873783-.6666667 1.33333333-.6666667z"/><filter id="j" height="130%" width="97.3%" x="1.4%" y="-15%"><feGaussianBlur in="SourceAlpha" result="shadowBlurInner1" stdDeviation=".5"/><feOffset dx="0" dy="0" in="shadowBlurInner1" result="shadowOffsetInner1"/><feComposite in="shadowOffsetInner1" in2="SourceAlpha" k2="-1" k3="1" operator="arithmetic" result="shadowInnerInner1"/><feColorMatrix in="shadowInnerInner1" type="matrix" values="0 0 0 0 1   0 0 0 0 1   0 0 0 0 1  0 0 0 0.5 0"/></filter><rect id="k" height="4.166667" rx="1.666667" width="3.333333" x="18.333333" y="5.833333"/><filter id="l" height="124%" width="130%" x="-15%" y="-12%"><feGaussianBlur in="SourceAlpha" result="shadowBlurInner1" stdDeviation=".5"/><feOffset dx="0" dy="0" in="shadowBlurInner1" result="shadowOffsetInner1"/><feComposite in="shadowOffsetInner1" in2="SourceAlpha" k2="-1" k3="1" operator="arithmetic" result="shadowInnerInner1"/><feColorMatrix in="shadowInnerInner1" type="matrix" values="0 0 0 0 1   0 0 0 0 1   0 0 0 0 1  0 0 0 0.5 0"/></filter><path id="m" d="m7.49995096 4.16666667.09718427.00560644c.37991149.04412612.68188828.34377107.72957947.72258394l.00656959.10514295v7.0833333l2.99593151 2.2466167c-.3826369.4060053-.7063076.8655523-.9597628 1.3640586l-3.70283538-2.7773419v-7.9166667l.00560645-.09718427c.04813759-.4144489.40036369-.73614906.82772689-.73614906zm25.00004904 0c.4273632 0 .7795893.32170016.8277269.73614906l.0056064.09718427v7.9166667l-3.7025591 2.7762545c-.2544014-.5003123-.5788396-.9590075-.9603925-1.3631632l2.996285-2.2464247v-7.0833333c0-.4273632.3217001-.7795893.736149-.82772689zm-17.154822-4.16666667 1.134468 1.13402708c-.5619684.18820433-1.0857881.45963202-1.5568221.79964601l-.2678239-.26700642h-7.98833333l-.09718427-.00560645c-.41444891-.04813759-.73614907-.40036369-.73614907-.82772689 0-.42483442.31790432-.77541831.72880177-.82684048l.10453157-.00649285zm17.9881553 0c.4602373 0 .8333334.37309604.8333334.83333333 0 .4273632-.3217002.7795893-.7361491.82772689l-.0971843.00560645h-7.9883333l-.2678111.26701567c-.4708713-.33989846-.9944921-.61125786-1.5562407-.7994562l1.1338738-1.13422614z"/><filter id="n" height="119.1%" width="110.6%" x="-5.3%" y="-9.6%"><feGaussianBlur in="SourceAlpha" result="shadowBlurInner1" stdDeviation="1.5"/><feOffset dx="0" dy="0" in="shadowBlurInner1" result="shadowOffsetInner1"/><feComposite in="shadowOffsetInner1" in2="SourceAlpha" k2="-1" k3="1" operator="arithmetic" result="shadowInnerInner1"/><feColorMatrix in="shadowInnerInner1" type="matrix" values="0 0 0 0 1   0 0 0 0 1   0 0 0 0 1  0 0 0 0.5 0"/></filter><path id="o" d="m30.039322 20.4223333 5.0063305 4.1179504c.6721673.5529157.8057088 1.5299459.3065696 2.2429569l-5.1372221 7.3384261 3.2251209 3.8712534c.2945991.3536202.2467911.8790977-.1067876 1.1737466-.353564.2946367-.8790346.2468666-1.1736714-.1066974l-3.2253829-3.8704595c-.4814862-.5777835-.5163489-1.4064531-.0850936-2.0226362l4.9133146-7.0202069-4.380178-.6343334zm-20.12099998-.319.68999998 5.348-4.80089647.6953334 4.91331457 7.0202069c.4004514.57217.3989949 1.3275554.0112389 1.8951542l-.0963325.127482-3.22538291 3.8704595c-.29463673.353564-.82010732.4013341-1.1736714.1066974-.32411377-.2700948-.39129524-.7341498-.17332505-1.0819942l.06653749-.0917524 3.2251209-3.8712534-5.13722211-7.3384261c-.46977808-.6710692-.37911928-1.57601.19356229-2.141121l.11300735-.1018359z"/><filter id="p" height="115.6%" width="109.5%" x="-4.7%" y="-7.8%"><feGaussianBlur in="SourceAlpha" result="shadowBlurInner1" stdDeviation="1.5"/><feOffset dx="0" dy="0" in="shadowBlurInner1" result="shadowOffsetInner1"/><feComposite in="shadowOffsetInner1" in2="SourceAlpha" k2="-1" k3="1" operator="arithmetic" result="shadowInnerInner1"/><feColorMatrix in="shadowInnerInner1" type="matrix" values="0 0 0 0 1   0 0 0 0 1   0 0 0 0 1  0 0 0 0.5 0"/></filter><path id="q" d="m24.4278227 14.1666667h-8.8556454c-.1782879 0-.3563919.0114431-.5332139.0342589-2.2222062.2867362-3.8084039 2.274658-3.6185056 4.4858737l.0193117.1797479 2.2580646 17.5c.2599818 2.0148593 1.9315094 3.5386927 3.9428789 3.6291961l.1895288.0042567h4.3395164l.1895288-.0042567c1.9485142-.0876751 3.5780948-1.520497 3.914403-3.4417703l.0284759-.1874258 2.2580646-17.5c.0228157-.1768219.0342589-.354926.0342589-.5332139 0-2.2406289-1.768589-4.0681817-3.9859254-4.162817zm-2.761156-11.6666667h-3.3333334c-2.2406289 0-4.0681817 1.76858892-4.162817 3.98592532l-.0038496.18074135v1.66666666c0 2.24062897 1.7685889 4.06818177 3.9859253 4.16281707l.1807413.0038496h3.3333334l.1807413-.0038496c2.1557437-.0920065 3.8873241-1.8219946 3.9818597-3.97708247l.0040656-.1857346v-1.66666666c0-2.24062892-1.7685889-4.06818177-3.9859253-4.16281708z"/><filter id="r" height="108%" width="117.5%" x="-8.7%" y="-4%"><feGaussianBlur in="SourceAlpha" result="shadowBlurInner1" stdDeviation="1.5"/><feOffset dx="0" dy="0" in="shadowBlurInner1" result="shadowOffsetInner1"/><feComposite in="shadowOffsetInner1" in2="SourceAlpha" k2="-1" k3="1" operator="arithmetic" result="shadowInnerInner1"/><feColorMatrix in="shadowInnerInner1" type="matrix" values="0 0 0 0 1   0 0 0 0 1   0 0 0 0 1  0 0 0 0.5 0"/></filter><path id="s" d="m.00094025 27.4937502c4.13680852 1.5270047 10.88214965 2.4442072 18.63074155 2.5032167l.7987134.0030331c7.3570158 0 13.8736694-.7680152 18.2108703-2.0968436-1.1370256.8878101-4.2629649 2.1006356-11.127537 4.5968436-3.3333333.8333333-2.5 7.5-7.5 7.5-5.8333333 0-4.1666666-6.6666667-7.5-7.5-7.2033898-2.8813559-10.67078422-3.9921419-11.4786565-4.9635345z"/><filter id="t" height="108%" width="102.7%" x="-1.3%" y="-4%"><feGaussianBlur in="SourceAlpha" result="shadowBlurInner1" stdDeviation=".5"/><feOffset dx="0" dy="0" in="shadowBlurInner1" result="shadowOffsetInner1"/><feComposite in="shadowOffsetInner1" in2="SourceAlpha" k2="-1" k3="1" operator="arithmetic" result="shadowInnerInner1"/><feColorMatrix in="shadowInnerInner1" type="matrix" values="0 0 0 0 1   0 0 0 0 1   0 0 0 0 1  0 0 0 0.5 0"/></filter><path id="u" d="m1.18455655 27.8924162c4.17990499 1.2870274 10.39841455 2.0508711 17.44712525 2.1045507l.666843.0020331-.2847963.001c-7.9753448 0-14.81298044-.84715-17.70006895-2.0522607zm17.82917195-27.8924162c3.3333334 0 0 7.5 4.1666667 17.5 2.5 5 6.3053556 6.3588919 7.6407563 6.5407632 3.684592.5018129 6.2863009 1.2330916 7.0940696 2.0701738-3.8298649 1.2235648-10.3458297 2.1573708-17.7085375 2.2191402l-.7762884.0032561c-8.0824151 0-15.2364656-1.0589423-19.08541166-2.4243683 1.01150921-.7568031 3.50372158-1.4143662 6.91651133-1.8756901 1.36837406-.1849699 5.45863813-1.4286456 7.58556703-6.5332749 4.1666666-10 .8333333-17.5 4.1666666-17.5z"/><filter id="v" height="103.3%" width="102.7%" x="-1.3%" y="-1.7%"><feGaussianBlur in="SourceAlpha" result="shadowBlurInner1" stdDeviation=".5"/><feOffset dx="0" dy="0" in="shadowBlurInner1" result="shadowOffsetInner1"/><feComposite in="shadowOffsetInner1" in2="SourceAlpha" k2="-1" k3="1" operator="arithmetic" result="shadowInnerInner1"/><feColorMatrix in="shadowInnerInner1" type="matrix" values="0 0 0 0 1   0 0 0 0 1   0 0 0 0 1  0 0 0 0.5 0"/></filter><path id="w" d="m35.8261666 17.8338239c.0047819.1650645.0071667.3317603.0071667.4995094 0 9.6649832-7.0888248 19.1666667-15.8333333 19.1666667s-15.83333333-9.5016835-15.83333333-19.1666667l.00181947-.2533473.00518053-.246986.0154884.2520596c.35372383 4.6337976 4.90648037 7.95098 11.19745573 9.0336615-1.2140403.703301-1.8944417 2.1324129-1.5843068 3.5797092l.7142857 3.3333333c.3293363 1.5369026 1.6875488 2.6349031 3.2593414 2.6349031h4.4481378c1.5717926 0 2.9300051-1.0980005 3.2593414-2.6349031l.7142857-3.3333333c.0491903-.2295549.073992-.4636642.073992-.6984303 0-1.2297378-.6659201-2.3039416-1.6568267-2.8816781 6.4037279-1.1023989 11.0058658-4.5200825 11.2113053-9.284498zm-15.8261666-15.3338239c5.2695488 0 10.5390976 2.73294671 13.4739222 7.41091725-1.9631328-.76151481-4.2930737-.7192789-6.9635917.06184088l-.3407888.10310857c-1.5322383.4788245-2.7170914 1.1774863-3.7949703 2.1300245l-.1632311.1490953c-.4847086.4531666-1.3190608 1.3023629-1.4047598 1.3811125-.3727492.3425224-.5521598.4305677-.8065805.4305677-.6528524 0-1.1791634-.2974316-2.2205093-1.2674589l-.8925333-.8493667c-1.1830217-1.1055347-1.9298825-1.6219067-3.0564991-1.9739744-1.8278225-.57119452-4.05273901-.62209042-6.68346396-.18905905l-.41637459.07198653c-.09399034.01704662-.18618339.03913594-.2762671.06601002 2.92051939-4.74705743 8.23308335-7.5248042 13.54564735-7.5248042z"/><filter id="x" height="102.9%" width="103.2%" x="-1.6%" y="-1.4%"><feGaussianBlur in="SourceAlpha" result="shadowBlurInner1" stdDeviation=".5"/><feOffset dx="0" dy="0" in="shadowBlurInner1" result="shadowOffsetInner1"/><feComposite in="shadowOffsetInner1" in2="SourceAlpha" k2="-1" k3="1" operator="arithmetic" result="shadowInnerInner1"/><feColorMatrix in="shadowInnerInner1" type="matrix" values="0 0 0 0 1   0 0 0 0 1   0 0 0 0 1  0 0 0 0.5 0"/></filter><path id="y" d="m22.9383546 28.3333333c.9204746 0 1.6666667.7461921 1.6666667 1.6666667 0 .1173831-.0124008.2344377-.036996.3492151l-.7142857 3.3333334c-.1646681.7684513-.8437744 1.3174515-1.6296707 1.3174515h-4.4481378c-.7858963 0-1.4650026-.5490002-1.6296707-1.3174515l-.7142857-3.3333334c-.1928662-.9000422.3804132-1.7860196 1.2804555-1.9788858.1147775-.0245952.2318321-.036996.3492152-.036996z"/><filter id="z" height="115%" width="110.9%" x="-5.4%" y="-7.5%"><feGaussianBlur in="SourceAlpha" result="shadowBlurInner1" stdDeviation=".5"/><feOffset dx="0" dy="0" in="shadowBlurInner1" result="shadowOffsetInner1"/><feComposite in="shadowOffsetInner1" in2="SourceAlpha" k2="-1" k3="1" operator="arithmetic" result="shadowInnerInner1"/><feColorMatrix in="shadowInnerInner1" type="matrix" values="0 0 0 0 1   0 0 0 0 1   0 0 0 0 1  0 0 0 0.5 0"/></filter><path id="A" d="m26.6666667 11.6666667c2.6138852-.8168392 4.7693434-.8480815 6.4663746-.093727.1347729.0599085.2506102.1542161.3363804.2726123l.0585161.0931527.0464038.0920839c.3948834.835862.5923251 2.6589325.5923251 5.4692114 0 5-6.3426327 8.3333333-14.1666667 8.3333333s-14.16666667-3.3333333-14.16666667-8.3333333l.00363229-.6420468c.02784757-2.3915603.21581861-3.9825032.56391314-4.7728287.09761219-.2216221.28592395-.3881905.51390686-.4594687l.09998704-.0245964.40292113-.0697155c2.39404102-.3940719 4.36592091-.3489643 5.91563951.1353228 2.5633326.8010414 3.8426339 4.1666666 6.6666667 4.1666666 2.3203602 0 2.5899118-2.8926807 6.6666667-4.1666666z"/><filter id="B" height="106.8%" width="103.5%" x="-1.8%" y="-3.4%"><feGaussianBlur in="SourceAlpha" result="shadowBlurInner1" stdDeviation=".5"/><feOffset dx="0" dy="0" in="shadowBlurInner1" result="shadowOffsetInner1"/><feComposite in="shadowOffsetInner1" in2="SourceAlpha" k2="-1" k3="1" operator="arithmetic" result="shadowInnerInner1"/><feColorMatrix in="shadowInnerInner1" type="matrix" values="0 0 0 0 1   0 0 0 0 1   0 0 0 0 1  0 0 0 0.5 0"/></filter><path id="C" d="m17.9562587 21.0841313.3776686.0007191c8.3120353 0 15.2745648-1.040346 18.3329597-3.0065696l.0003736 12.9778339-.1416789-.0004048c-1.1271514 2.8351899-8.8420857 5.0291405-18.1916544 5.0291405-9.34956878 0-17.06450308-2.1939506-18.19165448-5.0291405l-.14167887.0004048.00007698-12.9780246c3.0118089 1.9364925 9.81042617 2.9749542 17.95558777 3.0060412z"/><filter id="D" height="105.6%" width="102.7%" x="-1.4%" y="-2.8%"><feGaussianBlur in="SourceAlpha" result="shadowBlurInner1" stdDeviation=".5"/><feOffset dx="0" dy="0" in="shadowBlurInner1" result="shadowOffsetInner1"/><feComposite in="shadowOffsetInner1" in2="SourceAlpha" k2="-1" k3="1" operator="arithmetic" result="shadowInnerInner1"/><feColorMatrix in="shadowInnerInner1" type="matrix" values="0 0 0 0 1   0 0 0 0 1   0 0 0 0 1  0 0 0 0.5 0"/></filter><path id="E" d="m18.3339273 10.251517.7198847.0034686c.6243197.0060267 1.2406318.0198581 1.8474194.0411152l-2.0362035.7413693c-1.2974448.4722313-1.9664125 1.9068372-1.4941812 3.2042819.4722313 1.2974448 1.9068372 1.9664125 3.2042819 1.4941812l11.1088658-4.0424275c3.0898484.8203925 4.9832662 1.9255897 4.9832662 3.1413447 0 2.5313051-8.2081129 4.5833333-18.3333333 4.5833333l-.7198848-.0034686c-9.79154503-.0945187-17.61344855-2.1088288-17.61344855-4.5798647 0-1.4824518 2.81524042-2.80052 7.18206687-3.6382908l4.44503358 5.1132761c.9058285 1.0420365 2.4848851 1.1524549 3.5269216.2466264 1.0420364-.9058285 1.1524548-2.484885.2466263-3.5269215l-2.2550217-2.5919514c1.6448976-.1210941 3.3859492-.1860722 5.1877067-.1860722z"/><filter id="F" height="110.9%" width="102.7%" x="-1.4%" y="-5.5%"><feGaussianBlur in="SourceAlpha" result="shadowBlurInner1" stdDeviation=".5"/><feOffset dx="0" dy="0" in="shadowBlurInner1" result="shadowOffsetInner1"/><feComposite in="shadowOffsetInner1" in2="SourceAlpha" k2="-1" k3="1" operator="arithmetic" result="shadowInnerInner1"/><feColorMatrix in="shadowInnerInner1" type="matrix" values="0 0 0 0 1   0 0 0 0 1   0 0 0 0 1  0 0 0 0.5 0"/></filter><path id="G" d="m2.11564416.28663002 12.02774884 13.83634228c.3019429.3473455.2651367.8736977-.0822088 1.1756405-.3473455.3019429-.8736976.2651367-1.1756405-.0822088l-12.02774884-13.83634227c-.30194283-.34734549-.2651367-.87369768.0822088-1.17564051.34734549-.30194283.87369767-.2651367 1.1756405.0822088zm35.61520934 6.54468557c.1574104.43248159-.0655788.91068355-.4980604 1.06809397l-17.2276981 6.27036934c-.4324815.1574104-.9106835-.0655789-1.0680939-.4980604-.1574105-.4324816.0655788-.9106836.4980604-1.068094l17.227698-6.27036931c.4324816-.15741042.9106836.06557881 1.068094.4980604z"/><filter id="H" height="106.5%" width="102.7%" x="-1.3%" y="-3.2%"><feGaussianBlur in="SourceAlpha" result="shadowBlurInner1" stdDeviation=".5"/><feOffset dx="0" dy="0" in="shadowBlurInner1" result="shadowOffsetInner1"/><feComposite in="shadowOffsetInner1" in2="SourceAlpha" k2="-1" k3="1" operator="arithmetic" result="shadowInnerInner1"/><feColorMatrix in="shadowInnerInner1" type="matrix" values="0 0 0 0 1   0 0 0 0 1   0 0 0 0 1  0 0 0 0.5 0"/></filter><path id="I" d="m11.9648189 6.77031984 1.1301648 2.82504457c.1259949.3149874.202981.64689359.2287357.98417779l.0096753.2537911-.0003947 1.3989865 9.6373386 2.8354044c.8830715.2597269 1.3883922 1.1861481 1.1286653 2.0692197-.2479212.8429319-1.1033055 1.3416735-1.9485989 1.1593769l-.1206208-.0307116-8.6967842-2.5582894v2.903l4.6670614 6.2230135c.2777314.3703086.3875914.8373524.3081335 1.2887841l-.0335272.1497449-2.5 9.1666667c-.2421928.8880406-1.1584281 1.4116036-2.0464687 1.1694107-.8476751-.2311841-1.3632539-1.0765267-1.1977282-1.9252635l.0283175-.1212052 2.2854397-8.3806377-2.6892466-3.5847285c-.457071.3644544-1.0087973.5958878-1.5840345.6898711l1.0731043 6.4400258c.091627.5497619-.0978232 1.1055825-.4983443 1.4845065l-.1044871.0909398-8.33333335 6.6666667c-.71876989.5750159-1.76759051.4584803-2.34260643-.2602896-.54626512-.6828314-.46840497-1.6635336.15700204-2.252901l.10328757-.0897054 7.56949174-6.056052-1.3843203-8.3079513c-.05245914-.1846697-.09237201-.3805614-.11827262-.5877663-.26993016-2.1594413-.47237778-3.7790222-.60734286-4.8587429-.23540529-1.8832423-.58851323-4.7081058-1.05932381-8.47459042.88077558.78078304 2.03901276 1.25321755 3.30759292 1.25321755 1.4301672 0 2.720091-.60045353 3.6314242-1.56301349z"/><filter id="J" height="103.2%" width="104.1%" x="-2.1%" y="-1.6%"><feGaussianBlur in="SourceAlpha" result="shadowBlurInner1" stdDeviation=".5"/><feOffset dx="0" dy="0" in="shadowBlurInner1" result="shadowOffsetInner1"/><feComposite in="shadowOffsetInner1" in2="SourceAlpha" k2="-1" k3="1" operator="arithmetic" result="shadowInnerInner1"/><feColorMatrix in="shadowInnerInner1" type="matrix" values="0 0 0 0 1   0 0 0 0 1   0 0 0 0 1  0 0 0 0.5 0"/></filter><path id="K" d="m24.1224233 2.95160111c.201242.85527823-.2957118 1.71170247-1.120598 1.97115512l-.1200317.03293905-12.5031428 2.94155228c1.6118832-.72345513 2.7709826-2.27574914 2.9348111-4.11439502l8.8048672-2.07188115c.8960058-.21082489 1.7932693.34462396 2.0040942 1.24062972z"/><filter id="L" height="116%" width="107.3%" x="-3.6%" y="-8%"><feGaussianBlur in="SourceAlpha" result="shadowBlurInner1" stdDeviation=".5"/><feOffset dx="0" dy="0" in="shadowBlurInner1" result="shadowOffsetInner1"/><feComposite in="shadowOffsetInner1" in2="SourceAlpha" k2="-1" k3="1" operator="arithmetic" result="shadowInnerInner1"/><feColorMatrix in="shadowInnerInner1" type="matrix" values="0 0 0 0 1   0 0 0 0 1   0 0 0 0 1  0 0 0 0.5 0"/></filter><path id="M" d="m8.3333947 0c1.8409492 0 3.3333333 1.49238417 3.3333333 3.33333333 0 1.84094917-1.4923841 3.33333334-3.3333333 3.33333334-1.84094916 0-3.33333333-1.49238417-3.33333333-3.33333334 0-1.84094916 1.49238417-3.33333333 3.33333333-3.33333333z"/><filter id="N" height="115%" width="115%" x="-7.5%" y="-7.5%"><feGaussianBlur in="SourceAlpha" result="shadowBlurInner1" stdDeviation=".5"/><feOffset dx="0" dy="0" in="shadowBlurInner1" result="shadowOffsetInner1"/><feComposite in="shadowOffsetInner1" in2="SourceAlpha" k2="-1" k3="1" operator="arithmetic" result="shadowInnerInner1"/><feColorMatrix in="shadowInnerInner1" type="matrix" values="0 0 0 0 1   0 0 0 0 1   0 0 0 0 1  0 0 0 0.5 0"/></filter><path id="O" d="m37.5 0c1.6666667 0 1.6666667 16.6666667 0 16.6666667-2.2222222-4.4444445-5.8333333-6.6666667-10.8333333-6.6666667h-17.50000003c-4.18827636 0-5.83333334 1.0967046-5.83333334 3.3333333 0 2.1880064 1.5743102 3.2851118 5.56378135 3.331778l.26955199.0015554h21.66666663c3.1426968 0 5 1.8573032 5 5 0 3.0712718-1.7738396 4.9149132-4.7877237 4.9971286l-.2122763.0028714h-13.3333333c-.9204746 0-1.6666667-.7461921-1.6666667-1.6666667 0-.8786348.6798982-1.5984709 1.5422814-1.6620952l.1243853-.0045715h13.3333333c1.3017477 0 1.6666667-.364919 1.6666667-1.6666666 0-1.2516805-.3373882-1.6372102-1.52059-1.6650147l-21.81274333-.001652c-5.81172364 0-9.16666667-2.2366287-9.16666667-6.6666667 0-4.35365798 3.24025264-6.58888948 8.86825582-6.66467224l.29841085-.00199439h17.50000003c5 0 8.6111111-2.22222223 10.8333333-6.66666667z"/><filter id="P" height="103.8%" width="102.6%" x="-1.3%" y="-1.9%"><feGaussianBlur in="SourceAlpha" result="shadowBlurInner1" stdDeviation=".5"/><feOffset dx="0" dy="0" in="shadowBlurInner1" result="shadowOffsetInner1"/><feComposite in="shadowOffsetInner1" in2="SourceAlpha" k2="-1" k3="1" operator="arithmetic" result="shadowInnerInner1"/><feColorMatrix in="shadowInnerInner1" type="matrix" values="0 0 0 0 1   0 0 0 0 1   0 0 0 0 1  0 0 0 0.5 0"/></filter><path id="Q" d="m11.6666667 11.6666667v3.3333333h-3.33333337v-3.3333333zm5 0v3.3333333h-3.3333334v-3.3333333z"/><filter id="R" height="130%" width="112%" x="-6%" y="-15%"><feGaussianBlur in="SourceAlpha" result="shadowBlurInner1" stdDeviation=".5"/><feOffset dx="0" dy="0" in="shadowBlurInner1" result="shadowOffsetInner1"/><feComposite in="shadowOffsetInner1" in2="SourceAlpha" k2="-1" k3="1" operator="arithmetic" result="shadowInnerInner1"/><feColorMatrix in="shadowInnerInner1" type="matrix" values="0 0 0 0 1   0 0 0 0 1   0 0 0 0 1  0 0 0 0.5 0"/></filter><path id="S" d="m21.666667 20.833333h3.333333v1.666667h-3.333333z"/><filter id="T" height="160%" width="130%" x="-15%" y="-30%"><feGaussianBlur in="SourceAlpha" result="shadowBlurInner1" stdDeviation=".5"/><feOffset dx="0" dy="0" in="shadowBlurInner1" result="shadowOffsetInner1"/><feComposite in="shadowOffsetInner1" in2="SourceAlpha" k2="-1" k3="1" operator="arithmetic" result="shadowInnerInner1"/><feColorMatrix in="shadowInnerInner1" type="matrix" values="0 0 0 0 1   0 0 0 0 1   0 0 0 0 1  0 0 0 0.5 0"/></filter></defs><g fill="none" transform="translate(0 1)"><g transform="matrix(.95105652 -.30901699 .30901699 .95105652 2.311715 10.003917)"><use fill="#b80000" fill-opacity=".62" xlink:href="#a"/><use fill="#000" filter="url(#b)" xlink:href="#a"/><use fill="#b80000" xlink:href="#c"/><use fill="#000" filter="url(#d)" xlink:href="#c"/><use fill="#b80000" fill-opacity=".46" xlink:href="#e"/><use fill="#000" filter="url(#f)" xlink:href="#e"/></g><g transform="translate(60)"><g><use fill="#f57200" xlink:href="#g"/><use fill="#000" filter="url(#h)" xlink:href="#g"/></g><g><use fill="#f57200" fill-opacity=".62" xlink:href="#i"/><use fill="#000" filter="url(#j)" xlink:href="#i"/></g><g><use fill="#f57200" fill-opacity=".46" xlink:href="#k"/><use fill="#000" filter="url(#l)" xlink:href="#k"/></g></g><g transform="translate(180)"><use fill="#639600" fill-opacity=".46" xlink:href="#m"/><use fill="#000" filter="url(#n)" xlink:href="#m"/></g><g transform="translate(180)"><use fill="#639600" fill-opacity=".62" xlink:href="#o"/><use fill="#000" filter="url(#p)" xlink:href="#o"/></g><g transform="translate(180)"><use fill="#639600" xlink:href="#q"/><use fill="#000" filter="url(#r)" xlink:href="#q"/></g><g transform="translate(240.986271)"><use fill="#0089f5" xlink:href="#s"/><use fill="#000" filter="url(#t)" xlink:href="#s"/></g><g transform="translate(240.986271)"><use fill="#0089f5" fill-opacity=".62" xlink:href="#u"/><use fill="#000" filter="url(#v)" xlink:href="#u"/></g><g transform="translate(120)"><use fill="#d700bb" xlink:href="#w"/><use fill="#000" filter="url(#x)" xlink:href="#w"/></g><g transform="translate(120)"><use fill="#d700bb" fill-opacity=".62" xlink:href="#y"/><use fill="#000" filter="url(#z)" xlink:href="#y"/></g><g transform="translate(120)"><use fill="#d700bb" fill-opacity=".46" xlink:href="#A"/><use fill="#000" filter="url(#B)" xlink:href="#A"/></g><g transform="translate(361.666073 3.91515)"><use fill="#9b00f5" fill-opacity=".62" xlink:href="#C"/><use fill="#000" filter="url(#D)" xlink:href="#C"/></g><g transform="translate(361.666073 3.91515)"><use fill="#9b00f5" xlink:href="#E"/><use fill="#000" filter="url(#F)" xlink:href="#E"/></g><g transform="translate(361.666073 3.91515)"><use fill="#9b00f5" fill-opacity=".46" xlink:href="#G"/><use fill="#000" filter="url(#H)" xlink:href="#G"/></g><g transform="translate(424.166667 .833333)"><use fill="#fff" xlink:href="#I"/><use fill="#a7fc02" xlink:href="#I"/><use fill="#000" filter="url(#J)" xlink:href="#I"/></g><g transform="translate(424.166667 .833333)"><use fill="#a7fc02" fill-opacity=".5" xlink:href="#K"/><use fill="#000" filter="url(#L)" xlink:href="#K"/></g><g transform="translate(424.166667 .833333)"><use fill="#fff" xlink:href="#M"/><use fill="#a7fc02" xlink:href="#M"/><use fill="#000" filter="url(#N)" xlink:href="#M"/></g><g transform="translate(300 6.666667)"><use fill="#e49c00" xlink:href="#O"/><use fill="#000" filter="url(#P)" xlink:href="#O"/></g><g transform="translate(300 6.666667)"><use fill="#e49c00" fill-opacity=".62" xlink:href="#Q"/><use fill="#000" filter="url(#R)" xlink:href="#Q"/></g><g transform="translate(300 6.666667)"><use fill="#e49c00" fill-opacity=".46" xlink:href="#S"/><use fill="#000" filter="url(#T)" xlink:href="#S"/></g></g></svg>