<svg xmlns="http://www.w3.org/2000/svg" width="80" height="80" viewBox="0 0 80 80">
  <path fill="#FFF" d="M6.29589844,37.0043945 L6.29589844,31.4135742 L9.640625,31.4135742 C13.2416992,31.4135742 15.2924805,29.0332031 15.2924805,25.8959961 C15.2924805,22.7832031 13.2661133,20.3417969 9.66503906,20.3417969 L3,20.3417969 L3,37.0043945 L6.29589844,37.0043945 Z M9.03027344,28.8256836 L6.28369141,28.8256836 L6.28369141,22.9663086 L9.03027344,22.9663086 C10.8491211,22.9663086 11.9355469,24.0283203 11.9355469,25.8959961 C11.9355469,27.7514648 10.8491211,28.8256836 9.03027344,28.8256836 Z M21.5180664,37.0043945 L21.5180664,30.7910156 L24.472168,30.7910156 L27.3896484,37.0043945 L31.0761719,37.0043945 L27.7314453,30.2905273 C29.2451172,29.7045898 30.7587891,28.0566406 30.7587891,25.6152344 C30.7587891,22.4291992 28.6103516,20.3417969 24.9116211,20.3417969 L18.2587891,20.3417969 L18.2587891,37.0043945 L21.5180664,37.0043945 Z M24.3867188,28.3129883 L21.5180664,28.3129883 L21.5180664,22.9296875 L24.4355469,22.9296875 C26.1811523,22.9296875 27.3530273,23.894043 27.3530273,25.6762695 C27.3530273,27.434082 26.2177734,28.3129883 24.3867188,28.3129883 Z M45.0043945,37.0043945 L45.0043945,34.3066406 L37.5458984,34.3066406 L37.5458984,29.8388672 L44.5649414,29.8388672 L44.5649414,27.3120117 L37.5458984,27.3120117 L37.5458984,23.0395508 L45.0043945,23.0395508 L45.0043945,20.3417969 L34.2744141,20.3417969 L34.2744141,37.0043945 L45.0043945,37.0043945 Z M54.0742188,37.3217773 C58.2978516,37.3217773 60.6782227,35.1977539 60.6782227,32.097168 C60.6782227,29.3017578 58.8959961,28.0078125 56.1982422,27.3974609 L53.6103516,26.7993164 C52.1455078,26.4819336 51.3276367,25.8227539 51.3276367,24.8217773 C51.3276367,23.527832 52.4140625,22.5878906 54.2329102,22.5878906 C56.0029297,22.5878906 57.0893555,23.503418 57.296875,24.699707 L60.421875,24.699707 C60.2631836,22.1362305 58.065918,20 54.2573242,20 C50.5830078,20 48.0317383,21.9897461 48.0317383,25.0415039 C48.0317383,27.5683594 49.6674805,29.0576172 52.2553711,29.6435547 L54.8310547,30.2416992 C56.5644531,30.6445312 57.3945312,31.2426758 57.3945312,32.4023438 C57.3945312,33.7695312 56.3081055,34.7094727 54.2573242,34.7094727 C52.2919922,34.7094727 51.046875,33.7573242 50.8271484,32.4633789 L47.6411133,32.4633789 C47.7875977,35.1000977 49.8383789,37.3217773 54.0742188,37.3217773 Z M69.4428711,37.3217773 C73.6665039,37.3217773 76.046875,35.1977539 76.046875,32.097168 C76.046875,29.3017578 74.2646484,28.0078125 71.5668945,27.3974609 L68.9790039,26.7993164 C67.5141602,26.4819336 66.6962891,25.8227539 66.6962891,24.8217773 C66.6962891,23.527832 67.7827148,22.5878906 69.6015625,22.5878906 C71.371582,22.5878906 72.4580078,23.503418 72.6655273,24.699707 L75.7905273,24.699707 C75.6318359,22.1362305 73.4345703,20 69.6259766,20 C65.9516602,20 63.4003906,21.9897461 63.4003906,25.0415039 C63.4003906,27.5683594 65.0361328,29.0576172 67.6240234,29.6435547 L70.199707,30.2416992 C71.9331055,30.6445312 72.7631836,31.2426758 72.7631836,32.4023438 C72.7631836,33.7695312 71.6767578,34.7094727 69.6259766,34.7094727 C67.6606445,34.7094727 66.4155273,33.7573242 66.1958008,32.4633789 L63.0097656,32.4633789 C63.15625,35.1000977 65.2070312,37.3217773 69.4428711,37.3217773 Z M25.8759766,60.0043945 L25.8759766,54.6577148 L27.5849609,52.7167969 L32.2480469,60.0043945 L36.215332,60.0043945 L30.0141602,50.5195312 L35.9589844,43.3417969 L32.3334961,43.3417969 L26.034668,50.800293 L25.8759766,50.800293 L25.8759766,43.3417969 L22.5800781,43.3417969 L22.5800781,60.0043945 L25.8759766,60.0043945 Z M41.8671875,60.0043945 L41.8671875,43.3417969 L38.5712891,43.3417969 L38.5712891,60.0043945 L41.8671875,60.0043945 Z M52.4995117,60.0043945 L52.4995117,46.1005859 L57.2358398,46.1005859 L57.2358398,43.3417969 L44.4672852,43.3417969 L44.4672852,46.1005859 L49.1914062,46.1005859 L49.1914062,60.0043945 L52.4995117,60.0043945 Z"/>
</svg>
