<svg height="80" viewBox="0 0 80 80" width="80" xmlns="http://www.w3.org/2000/svg"><path d="m6.29589844 37.0043945v-5.5908203h3.34472656c3.6010742 0 5.6518555-2.3803711 5.6518555-5.5175781 0-3.112793-2.0263672-5.5541992-5.62744144-5.5541992h-6.66503906v16.6625976zm2.734375-8.1787109h-2.74658203v-5.859375h2.74658203c1.81884766 0 2.90527346 1.0620117 2.90527346 2.9296875 0 1.8554687-1.0864258 2.9296875-2.90527346 2.9296875zm12.48779296 8.1787109v-6.2133789h2.9541016l2.9174804 6.2133789h3.6865235l-3.3447266-6.7138672c1.5136719-.5859375 3.0273438-2.2338867 3.0273438-4.6752929 0-3.1860352-2.1484375-5.2734375-5.847168-5.2734375h-6.652832v16.6625976zm2.8686524-8.6914062h-2.8686524v-5.3833008h2.9174805c1.7456054 0 2.9174804.9643555 2.9174804 2.746582 0 1.7578125-1.1352539 2.6367188-2.9663085 2.6367188zm20.6176757 8.6914062v-2.6977539h-7.4584961v-4.4677734h7.019043v-2.5268555h-7.019043v-4.2724609h7.4584961v-2.6977539h-10.7299804v16.6625976zm9.0698243.3173828c4.2236328 0 6.6040039-2.1240234 6.6040039-5.2246093 0-2.7954102-1.7822266-4.0893555-4.4799805-4.6997071l-2.5878906-.5981445c-1.4648438-.3173828-2.2827149-.9765625-2.2827149-1.9775391 0-1.2939453 1.0864258-2.2338867 2.9052735-2.2338867 1.7700195 0 2.8564453.9155274 3.0639648 2.1118164h3.125c-.1586914-2.5634765-2.355957-4.699707-6.1645508-4.699707-3.6743164 0-6.2255859 1.9897461-6.2255859 5.0415039 0 2.5268555 1.6357422 4.0161133 4.2236328 4.6020508l2.5756836.5981445c1.7333984.402832 2.5634765 1.0009766 2.5634765 2.1606446 0 1.3671874-1.0864257 2.3071289-3.137207 2.3071289-1.965332 0-3.2104492-.9521485-3.4301758-2.2460938h-3.1860351c.1464844 2.6367188 2.1972656 4.8583984 6.4331055 4.8583984zm15.3686523 0c4.2236328 0 6.6040039-2.1240234 6.6040039-5.2246093 0-2.7954102-1.7822266-4.0893555-4.4799805-4.6997071l-2.5878906-.5981445c-1.4648437-.3173828-2.2827148-.9765625-2.2827148-1.9775391 0-1.2939453 1.0864257-2.2338867 2.9052734-2.2338867 1.7700195 0 2.8564453.9155274 3.0639648 2.1118164h3.125c-.1586914-2.5634765-2.355957-4.699707-6.1645507-4.699707-3.6743164 0-6.225586 1.9897461-6.225586 5.0415039 0 2.5268555 1.6357422 4.0161133 4.2236328 4.6020508l2.5756836.5981445c1.7333985.402832 2.5634766 1.0009766 2.5634766 2.1606446 0 1.3671874-1.0864258 2.3071289-3.137207 2.3071289-1.9653321 0-3.2104493-.9521485-3.4301758-2.2460938h-3.1860352c.1464844 2.6367188 2.1972656 4.8583984 6.4331055 4.8583984zm-43.5668945 22.6826172v-5.3466797l1.7089843-1.9409179 4.663086 7.2875976h3.9672851l-6.2011718-9.4848633 5.9448242-7.1777343h-3.6254883l-6.2988281 7.4584961h-.1586914v-7.4584961h-3.2958985v16.6625976zm15.9912109 0v-16.6625976h-3.2958984v16.6625976zm10.6323242 0v-13.9038086h4.7363281v-2.758789h-12.7685546v2.758789h4.724121v13.9038086z" fill="#fff"/></svg>