<svg height="80" viewBox="0 0 80 80" width="80" xmlns="http://www.w3.org/2000/svg"><path d="m30 25.1334692v-6.6101968h-1.3042969v-2.2078058c-.0033789-1.0057949-.2736867-1.9921405-.7825781-2.8556051-.5217187-.9122071-1.4477695-1.67899-2.0086172-2.551536-.7857744-1.21510773-1.3634409-2.55600373-1.7086289-3.96611808-.3521601-1.52034528-.2347734-3.09357214-.5478046-4.62713782-.217756-1.0578552-1.1254023-1.82451609-2.1912188-1.85085512-2.3591888-.28586506-4.732469-.43593695-7.1084179-.44949339-2.5730889-.07171632-5.14677799.11873202-7.68230852.56847693-.72262301.18851366-1.28111845.76990619-1.44776952 1.50712489-.14347266.71390126-.26085937 2.47221363-.39128906 3.47696356-.15380436 2.17779359-1.01623008 4.24229298-2.45207811 5.86985483l-.59997655.6742401c-1.125101 1.1024765-1.76452105 2.6179292-1.77384374 4.2040852v22.9241628c-.03292477 1.6106166.62917603 3.1556122 1.81297264 4.230526 1.68996132 1.3226687 2.75465293 3.3035539 2.93466795 5.4600226.23477343 1.5335657 0 3.0935722.36520312 4.5742563.23756489.7649112.87680403 1.3312164 1.65645702 1.4674637 2.50024426.4510033 5.03945857.6414878 7.57796477.5684769 2.5557975.0723864 5.1122503-.11808 7.6301367-.5684769.742779-.1710475 1.3247089-.7557643 1.4999414-1.5071249.1434726-.7139013-.1956446-4.1908648 1.0303945-6.2929075.430418-.740342 2.2694765-3.5298451 2.2694765-3.5298451s.1956446-.2908487.2478164-.3437302c1.0441079-1.0893671 1.6408732-2.5401417 1.6695-4.0586609v-14.1061602zm-2.6085937 14.1061602c.0896548 2.3003044-1.6464374 4.2535808-3.9128906 4.4023911h-18.26015614c-2.26645318-.1488103-4.00254544-2.1020867-3.9128906-4.4023911v-22.9241628c-.08965484-2.3003044 1.64643742-4.2535809 3.9128906-4.4023911h18.26015614c2.2664532.1488102 4.0025454 2.1020867 3.9128906 4.4023911z" fill="#fff" transform="translate(25 12)"/></svg>