<svg xmlns="http://www.w3.org/2000/svg" width="80" height="80" viewBox="0 0 80 80">
  <path fill="#FFF" d="M30,25.1334692 L30,18.5232724 L28.6957031,18.5232724 L28.6957031,16.3154666 C28.6923242,15.3096717 28.4220164,14.3233261 27.913125,13.4598615 C27.3914063,12.5476544 26.4653555,11.7808715 25.9045078,10.9083255 C25.1187334,9.69321777 24.5410669,8.35232177 24.1958789,6.94220742 C23.8437188,5.42186214 23.9611055,3.84863528 23.6480743,2.3150696 C23.4303183,1.2572144 22.522672,0.490553512 21.4568555,0.464214475 C19.0976667,0.178349422 16.7243865,0.028277526 14.3484376,0.0147210871 C11.7753487,-0.056995229 9.20165961,0.133453106 6.66612908,0.583198019 C5.94350607,0.771711683 5.38501063,1.35310421 5.21835956,2.09032291 C5.0748869,2.80422417 4.95750019,4.56253654 4.8270705,5.56728647 C4.67326614,7.74508006 3.81084042,9.80957945 2.37499239,11.4371413 L1.77501584,12.1113814 C0.649914838,13.2138579 0.0104947862,14.7293106 0.00117209857,16.3154666 L0.00117209857,39.2396294 C-0.0317526745,40.850246 0.630348134,42.3952416 1.81414474,43.4701554 C3.50410606,44.7928241 4.56879767,46.7737093 4.74881269,48.930178 C4.98358612,50.4637437 4.74881269,52.0237502 5.11401581,53.5044343 C5.3515807,54.2693455 5.99081984,54.8356507 6.77047283,54.971898 C9.27071709,55.4229013 11.8099314,55.6133858 14.3484376,55.5403749 C16.9042351,55.6127613 19.4606879,55.4222949 21.9785743,54.971898 C22.7213533,54.8008505 23.3032832,54.2161337 23.4785157,53.4647731 C23.6219883,52.7508718 23.2828711,49.2739083 24.5089102,47.1718656 C24.9393282,46.4315236 26.7783867,43.6420205 26.7783867,43.6420205 C26.7783867,43.6420205 26.9740313,43.3511718 27.0262031,43.2982903 C28.070311,42.2089232 28.6670763,40.7581486 28.6957031,39.2396294 L28.6957031,25.1334692 L30,25.1334692 Z M27.3914063,39.2396294 C27.4810611,41.5399338 25.7449689,43.4932102 23.4785157,43.6420205 L5.21835956,43.6420205 C2.95190638,43.4932102 1.21581412,41.5399338 1.30546896,39.2396294 L1.30546896,16.3154666 C1.21581412,14.0151622 2.95190638,12.0618857 5.21835956,11.9130755 L23.4785157,11.9130755 C25.7449689,12.0618857 27.4810611,14.0151622 27.3914063,16.3154666 L27.3914063,39.2396294 Z" transform="translate(25 12)"/>
</svg>
