<svg width="26" height="26" version="2.0" xmlns="http://www.w3.org/2000/svg" xmlns:xlink="http://www.w3.org/1999/xlink" xmlns:figma="http://www.figma.com/figma/ns">
<title>Icon</title>
<desc>Created using Figma (9000)</desc>
<g id="Canvas" transform="translate(-592 -3002)" figma:type="canvas">
<g id="Icon" style="mix-blend-mode:normal;" figma:type="group">
<g id="constraints" style="mix-blend-mode:normal;" figma:type="group">
<g id="g" style="mix-blend-mode:normal;" figma:type="group">
<g id="g" style="mix-blend-mode:normal;isolation:isolate;" figma:type="group">
<g id="g" style="mix-blend-mode:normal;isolation:isolate;" figma:type="group">
<g id="use" style="mix-blend-mode:normal;isolation:isolate;" figma:type="vector">
<use xlink:href="#path0_fill" transform="translate(611.25 3002.31)" fill="#050505" style="mix-blend-mode:normal;"/>
</g>
<g id="use" style="mix-blend-mode:normal;isolation:isolate;" figma:type="vector">
<use xlink:href="#path1_fill" transform="translate(611.25 3021.06)" fill="#050505" style="mix-blend-mode:normal;"/>
</g>
<g id="use" style="mix-blend-mode:normal;isolation:isolate;" figma:type="vector">
<use xlink:href="#path2_fill" transform="translate(592.5 3002.31)" fill="#050505" style="mix-blend-mode:normal;"/>
</g>
<g id="use" style="mix-blend-mode:normal;isolation:isolate;" figma:type="vector">
<use xlink:href="#path3_fill" transform="translate(592.5 3021.06)" fill="#050505" style="mix-blend-mode:normal;"/>
</g>
</g>
<g id="g" style="mix-blend-mode:normal;isolation:isolate;" figma:type="group">
<g id="g" style="mix-blend-mode:normal;isolation:isolate;" figma:type="group">
<g id="use" style="mix-blend-mode:normal;isolation:isolate;" figma:type="vector">
<use xlink:href="#path4_fill" transform="matrix(1 -2.46663e-16 2.43234e-16 1 604.899 3005.23)" fill="#050505" style="mix-blend-mode:normal;"/>
</g>
</g>
<g id="g" style="mix-blend-mode:normal;isolation:isolate;" figma:type="group">
<g id="use" style="mix-blend-mode:normal;isolation:isolate;" figma:type="vector">
<use xlink:href="#path5_fill" transform="matrix(1 -2.45343e-16 2.44517e-16 1 602.727 3004.96)" fill="#050505" style="mix-blend-mode:normal;"/>
</g>
</g>
<g id="g" style="mix-blend-mode:normal;isolation:isolate;" figma:type="group">
<g id="use" style="mix-blend-mode:normal;isolation:isolate;" figma:type="vector">
<use xlink:href="#path6_fill" transform="matrix(1 -2.45323e-16 2.44537e-16 1 602.727 3022.6)" fill="#050505" style="mix-blend-mode:normal;"/>
</g>
</g>
</g>
<g id="g" style="mix-blend-mode:normal;isolation:isolate;" figma:type="group">
<g id="g" style="mix-blend-mode:normal;isolation:isolate;" figma:type="group">
<g id="use" style="mix-blend-mode:normal;isolation:isolate;" figma:type="vector">
<use xlink:href="#path7_fill" transform="matrix(3.07895e-16 1 -1 3.04467e-16 614.04 3013.95)" fill="#050505" style="mix-blend-mode:normal;"/>
</g>
</g>
<g id="g" style="mix-blend-mode:normal;isolation:isolate;" figma:type="group">
<g id="use" style="mix-blend-mode:normal;isolation:isolate;" figma:type="vector">
<use xlink:href="#path8_fill" transform="matrix(3.06558e-16 1 -1 3.05767e-16 614.314 3011.78)" fill="#050505" style="mix-blend-mode:normal;"/>
</g>
</g>
<g id="g" style="mix-blend-mode:normal;isolation:isolate;" figma:type="group">
<g id="use" style="mix-blend-mode:normal;isolation:isolate;" figma:type="vector">
<use xlink:href="#path8_fill" transform="matrix(3.06558e-16 1 -1 3.05767e-16 596.667 3011.78)" fill="#050505" style="mix-blend-mode:normal;"/>
</g>
</g>
</g>
</g>
</g>
</g>
</g>
</g>
<defs>
<path id="path0_fill" d="
M 5.49242 6.25
L 5.87121 6.25
L 6.25 6.25
L 6.25 0.757576
L 6.25 0.378788
L 6.25 0
L 5.87121 0
L 5.49242 0
L 0 0
L 0 0.378788
L 0 0.757576
L 5.49242 0.757576
L 5.49242 6.25
Z"/>
<path id="path1_fill" d="
M 0 5.49242
L 0 5.87121
L 0 6.25
L 5.49242 6.25
L 5.87121 6.25
L 6.25 6.25
L 6.25 5.87121
L 6.25 5.49242
L 6.25 0
L 5.87121 0
L 5.49242 0
L 5.49242 5.49242
L 0 5.49242
Z"/>
<path id="path2_fill" d="
M 0 6.25
L 0.378788 6.25
L 0.757576 6.25
L 0.757576 0.757576
L 6.25 0.757576
L 6.25 0.378788
L 6.25 0
L 0.757576 0
L 0.378788 0
L 0 0
L 0 0.378788
L 0 0.757576
L 0 6.25
Z"/>
<path id="path3_fill" d="
M 0 5.87121
L 0 6.25
L 0.378788 6.25
L 0.757576 6.25
L 6.25 6.25
L 6.25 5.87121
L 6.25 5.49242
L 0.757576 5.49242
L 0.757576 0
L 0.378788 0
L 0 0
L 0 5.49242
L 0 5.87121
Z"/>
<path id="path4_fill" d="
M 0.757568 0.378789
L 0.757568 0
L 0 0
L 0 0.378789
L 0.757568 0.378789
Z
M 0 17.752
L 0 18.1308
L 0.757568 18.1308
L 0.757568 17.752
L 0 17.752
Z
M 0 0.378789
L 0 17.752
L 0.757568 17.752
L 0.757568 0.378789
L 0 0.378789
Z"/>
<path id="path5_fill" d="
M 0.378789 0
L 0 0
L 0 0.757629
L 0.378789 0.757629
L 0.378789 0
Z
M 4.7221 0.757629
L 5.10089 0.757629
L 5.10089 0
L 4.7221 0
L 4.7221 0.757629
Z
M 0.378789 0.757629
L 4.7221 0.757629
L 4.7221 0
L 0.378789 0
L 0.378789 0.757629
Z"/>
<path id="path6_fill" d="
M 0.378789 0
L 0 0
L 0 0.757568
L 0.378789 0.757568
L 0.378789 0
Z
M 4.7221 0.757568
L 5.10089 0.757568
L 5.10089 0
L 4.7221 0
L 4.7221 0.757568
Z
M 0.378789 0.757568
L 4.7221 0.757568
L 4.7221 0
L 0.378789 0
L 0.378789 0.757568
Z"/>
<path id="path7_fill" d="
M 0.757568 0.378788
L 0.757568 0
L 0 0
L 0 0.378788
L 0.757568 0.378788
Z
M 0 17.752
L 0 18.1308
L 0.757568 18.1308
L 0.757568 17.752
L 0 17.752
Z
M 0 0.378788
L 0 17.752
L 0.757568 17.752
L 0.757568 0.378788
L 0 0.378788
Z"/>
<path id="path8_fill" d="
M 0.378784 0
L 0 0
L 0 0.757568
L 0.378784 0.757568
L 0.378784 0
Z
M 4.72205 0.757568
L 5.10083 0.757568
L 5.10083 0
L 4.72205 0
L 4.72205 0.757568
Z
M 0.378784 0.757568
L 4.72205 0.757568
L 4.72205 0
L 0.378784 0
L 0.378784 0.757568
Z"/>
</defs>
</svg>
