<svg width="64" height="30" version="2.0" xmlns="http://www.w3.org/2000/svg" xmlns:xlink="http://www.w3.org/1999/xlink" xmlns:figma="http://www.figma.com/figma/ns">
<title>Icon</title>
<desc>Created using Figma (9000)</desc>
<g id="Canvas" transform="translate(-875 -1401)" figma:type="canvas">
<g id="Icon" style="mix-blend-mode:normal;" figma:type="group">
<g id="cross_platform" style="mix-blend-mode:normal;" figma:type="group">
<g id="g" style="mix-blend-mode:normal;" figma:type="group">
<g id="g" style="mix-blend-mode:normal;isolation:isolate;" figma:type="group">
<g id="g" style="mix-blend-mode:normal;isolation:isolate;" figma:type="group">
<g id="g" style="mix-blend-mode:normal;isolation:isolate;" figma:type="group">
<g id="g" style="mix-blend-mode:normal;isolation:isolate;" figma:type="group">
<g id="g" style="mix-blend-mode:normal;isolation:isolate;" figma:type="group">
<g id="use" style="mix-blend-mode:normal;isolation:isolate;" figma:type="vector">
<use xlink:href="#path0_fill" transform="translate(875.008 1409.04)" fill="#050505" style="mix-blend-mode:normal;"/>
</g>
<g id="use" style="mix-blend-mode:normal;isolation:isolate;" figma:type="vector">
<use xlink:href="#path1_fill" transform="translate(883.976 1403.65)" fill="#050505" style="mix-blend-mode:normal;"/>
</g>
<g id="use" style="mix-blend-mode:normal;isolation:isolate;" figma:type="vector">
<use xlink:href="#path2_fill" transform="translate(878.418 1408.98)" fill="#050505" style="mix-blend-mode:normal;"/>
</g>
</g>
<g id="g" style="mix-blend-mode:normal;isolation:isolate;" figma:type="group">
<g id="use" style="mix-blend-mode:normal;isolation:isolate;" figma:type="vector">
<use xlink:href="#path3_fill" transform="translate(878.41 1408.97)" fill="#050505" style="mix-blend-mode:normal;"/>
</g>
<g id="use" style="mix-blend-mode:normal;isolation:isolate;" figma:type="vector">
<use xlink:href="#path4_fill" transform="translate(875 1411.99)" fill="#050505" style="mix-blend-mode:normal;"/>
</g>
<g id="use" style="mix-blend-mode:normal;isolation:isolate;" figma:type="vector">
<use xlink:href="#path5_fill" transform="translate(875.823 1409.4)" fill="#050505" style="mix-blend-mode:normal;"/>
</g>
</g>
<g id="g" style="mix-blend-mode:normal;isolation:isolate;" figma:type="group">
<g id="use" style="mix-blend-mode:normal;isolation:isolate;" figma:type="vector">
<use xlink:href="#path6_fill" transform="translate(883.977 1403.65)" fill="#050505" style="mix-blend-mode:normal;"/>
</g>
</g>
</g>
<g id="g" style="mix-blend-mode:normal;isolation:isolate;" figma:type="group">
<g id="use" style="mix-blend-mode:normal;isolation:isolate;" figma:type="vector">
<use xlink:href="#path7_fill" transform="translate(916.407 1406.96)" fill="#050505" style="mix-blend-mode:normal;"/>
</g>
<g id="use" style="mix-blend-mode:normal;isolation:isolate;" figma:type="vector">
<use xlink:href="#path8_fill" transform="translate(926.663 1404.97)" fill="#050505" style="mix-blend-mode:normal;"/>
</g>
<g id="use" style="mix-blend-mode:normal;isolation:isolate;" figma:type="vector">
<use xlink:href="#path9_fill" transform="translate(916.407 1416.44)" fill="#050505" style="mix-blend-mode:normal;"/>
</g>
<g id="use" style="mix-blend-mode:normal;isolation:isolate;" figma:type="vector">
<use xlink:href="#path10_fill" transform="translate(926.663 1416.51)" fill="#050505" style="mix-blend-mode:normal;"/>
</g>
</g>
</g>
</g>
<g id="g" style="mix-blend-mode:normal;isolation:isolate;" figma:type="group">
<g id="use" style="mix-blend-mode:normal;isolation:isolate;" figma:type="vector">
<use xlink:href="#path11_fill" transform="matrix(6.22765e-17 -1 1 6.02056e-17 904.741 1431)" style="mix-blend-mode:normal;"/>
</g>
</g>
</g>
</g>
</g>
</g>
</g>
<defs>
<path id="path0_fill" d="
M 3.66987 0.37251
C 2.40268 0.888986 1.46374 1.76244 0.822509 2.9625
C 0.372123 3.80558 0.135478 4.71705 0.0438746 5.65887
C -0.0248284 6.35761 -0.00956105 7.05634 0.0667756 7.75516
C 0.135478 8.37034 0.249984 8.97043 0.402657 9.57043
C 0.952277 11.7122 1.96756 13.6187 3.41033 15.2972
L 4.09415 14.7258
C 2.71193 13.1254 1.79097 11.3977 1.27324 9.35628
C 1.27309 9.35566 1.27294 9.35513 1.2728 9.35452
C 1.12664 8.78152 1.02333 8.24143 0.959053 7.66093
C 0.958981 7.66022 0.9589 7.65952 0.958828 7.65881
C 0.885968 6.99846 0.872021 6.38999 0.93712 5.74376
L 0.93721 5.74287
C 1.01955 4.86855 1.2098 4.12208 1.61695 3.37288
C 2.17902 2.2953 2.89099 1.62929 4.01352 1.18761
L 4.01708 1.18614
C 4.55325 0.959733 5.02116 0.872177 5.60106 0.882562
L 5.61646 0.000334307
C 4.94469 -0.00725392 4.29583 0.114264 3.66987 0.37251
Z"/>
<path id="path1_fill" d="
M 1.04284 4.07498
C 1.03853 4.07639 1.03413 4.07782 1.02982 4.07923
C 0.997338 4.08973 0.965749 4.09959 0.934789 4.10886
C 0.988005 3.84085 1.08708 3.57398 1.22797 3.27519
C 1.22806 3.27501 1.22815 3.27481 1.22824 3.27463
C 1.71598 2.22347 2.48434 1.51627 3.54094 1.10516
C 3.3996 1.96387 3.00178 2.64053 2.29983 3.30675
L 2.29759 3.30897
C 1.92095 3.68578 1.55489 3.90691 1.04284 4.07498
Z
M 0.083242 5.08893
C 0.503048 5.11171 0.915315 5.04336 1.31986 4.91424
C 1.93055 4.70916 2.47258 4.38255 2.93053 3.93442
C 3.80756 3.08243 4.33469 2.06882 4.46688 0.882366
C 4.47191 0.837459 4.4763 0.792304 4.48016 0.746901
C 4.48707 0.665826 4.49219 0.583959 4.49542 0.501298
C 4.50305 0.326603 4.48779 0.167099 4.48016 0
C 4.4344 0 4.40388 0 4.37328 0
C 4.34115 0.00266436 4.30912 0.00564028 4.27726 0.00896413
C 4.04474 0.0331605 3.81716 0.0757966 3.58967 0.150925
C 3.58114 0.153739 3.57271 0.156598 3.56418 0.159503
C 2.12143 0.622824 1.05271 1.52668 0.411423 2.90904
C 0.0984979 3.58503 -0.0618233 4.28381 0.0221288 5.02817
C 0.0297567 5.06615 0.0373847 5.08133 0.083242 5.08893
Z"/>
<path id="path2_fill" d="
M 14.0382 2.14682
C 13.9979 2.08941 13.9567 2.03317 13.9145 1.97807
C 13.7836 1.80686 13.6438 1.64671 13.4952 1.49738
C 13.103 1.10333 12.6485 0.784571 12.1298 0.536612
C 11.4809 0.225204 10.794 0.0581041 10.084 0.0125306
C 9.61836 -0.0178487 9.16033 0.00494242 8.70229 0.103678
C 8.29775 0.194824 7.90073 0.323939 7.51144 0.475845
C 7.12215 0.620162 6.73286 0.772068 6.34356 0.908779
C 6.04581 1.01511 5.74051 1.06068 5.42749 0.977135
C 5.21375 0.916376 5.00001 0.855609 4.78627 0.779656
C 4.36642 0.62775 3.94657 0.460659 3.52673 0.308754
C 3.09924 0.156848 2.65649 0.0657011 2.20611 0.0581041
L 2.19579 0.940403
C 2.55753 0.943156 2.85323 1.00572 3.21681 1.13681
C 3.21844 1.13741 3.22008 1.13798 3.2217 1.13857
C 3.62659 1.28507 4.0448 1.45148 4.47635 1.60774
L 4.48125 1.60948
C 4.72272 1.69479 4.96449 1.76401 5.17823 1.82477
L 5.18528 1.82678
L 5.19236 1.82867
C 5.68711 1.94114 6.26289 1.87075 6.64536 1.73972
C 6.64689 1.7392 6.64841 1.73863 6.64994 1.73811
C 7.05233 1.59655 7.44737 1.44253 7.82805 1.30148
L 7.83531 1.29879
L 7.84249 1.29598
C 8.2046 1.15428 8.53412 1.04627 8.89452 0.965559
C 8.89721 0.964941 8.89999 0.96435 8.90268 0.963741
C 9.28426 0.879282 9.61423 0.864679 10.0246 0.89295
L 10.0255 0.893012
C 10.6564 0.930035 11.1746 1.05458 11.7361 1.32955
L 11.7375 1.33016
C 12.1612 1.52776 12.499 1.75168 12.7962 2.04172
C 11.4471 3.22114 10.6605 4.77588 10.7993 6.77917
L 10.7993 6.77961
C 10.9422 8.82464 11.9691 10.2913 13.5576 11.2827
C 13.1976 12.1972 12.7366 13.0185 12.1528 13.8278
L 12.1488 13.8335
C 11.866 14.2334 11.602 14.5923 11.2968 14.9297
C 11.2947 14.932 11.2926 14.9342 11.2906 14.9365
C 10.9932 15.2606 10.7457 15.4835 10.3981 15.6531
C 10.1057 15.8034 9.90409 15.8422 9.57179 15.8255
C 9.20556 15.8142 8.91327 15.7193 8.51913 15.5489
L 8.51743 15.5482
C 8.20504 15.415 7.83262 15.2498 7.42736 15.1309
L 7.42161 15.1293
C 6.78275 14.9558 6.05962 14.9136 5.42781 14.9793
L 5.42645 14.9795
C 4.8489 15.0487 4.27372 15.2377 3.80853 15.4319
L 3.80097 15.4351
C 3.47061 15.5771 3.20458 15.6944 2.91957 15.7657
C 2.91477 15.7668 2.91002 15.768 2.90528 15.7692
C 2.63491 15.8338 2.45625 15.8624 2.23678 15.8361
L 2.22655 15.8353
C 1.98973 15.8266 1.85402 15.7633 1.59855 15.6022
L 1.59577 15.6006
C 1.24371 15.392 0.987411 15.136 0.685418 14.7855
L 0 15.355
C 0.328243 15.7348 0.687024 16.0842 1.12214 16.35
C 1.44275 16.5475 1.77862 16.6842 2.15267 16.7146
C 2.48092 16.745 2.80916 16.6994 3.12978 16.6235
C 3.48855 16.5323 3.82443 16.388 4.16031 16.2437
C 4.59542 16.0614 5.04581 15.9095 5.52673 15.8564
C 6.08394 15.7956 6.6336 15.8259 7.17554 15.9779
C 7.51907 16.0766 7.83971 16.2209 8.16035 16.3576
C 8.60304 16.5475 9.05345 16.6842 9.53436 16.707
L 9.56568 15.8252
C 9.56775 15.8253 9.56972 15.8254 9.57179 15.8255
C 9.57367 15.8256 9.57565 15.8256 9.57753 15.8257
L 9.53436 16.707
C 9.97714 16.7222 10.3969 16.6387 10.8016 16.4412
L 10.3909 15.6566
C 10.3934 15.6554 10.3958 15.6542 10.3981 15.6531
C 10.3996 15.6524 10.4011 15.6516 10.4025 15.6509
L 10.8016 16.4412
C 11.2519 16.2133 11.6259 15.8867 11.9618 15.5221
C 12.2977 15.15 12.5954 14.7474 12.8855 14.3373
C 13.5191 13.4562 14.0459 12.5068 14.4352 11.4967
C 14.5114 11.2915 14.5878 11.0789 14.6566 10.8814
C 12.9084 10.0155 11.8321 8.68637 11.6947 6.71917
C 11.5789 5.04923 12.2053 3.7512 13.3595 2.72966
C 13.5753 2.53857 13.8097 2.35715 14.0611 2.18479
C 14.0573 2.18098 14.0534 2.17526 14.0496 2.1686
C 14.0458 2.16197 14.042 2.15439 14.0382 2.14682
Z"/>
<path id="path3_fill" d="
M 12.8856 14.3404
C 13.5268 13.4593 14.0458 12.5175 14.4352 11.4998
C 14.5115 11.2947 14.5878 11.082 14.6565 10.8845
C 12.9084 10.0263 11.8245 8.69714 11.6947 6.72238
C 11.5853 5.05848 12.213 3.76665 13.3677 2.74238
C 13.5835 2.55102 13.8176 2.369 14.0688 2.19565
C 14.0646 2.19147 14.0603 2.18501 14.0549 2.17626
C 14.0504 2.16908 14.0451 2.16034 14.0382 2.15007
C 14.0097 2.11002 13.9808 2.0705 13.9515 2.03149
C 13.8117 1.8456 13.6615 1.67165 13.5009 1.50978
C 13.1074 1.11311 12.6511 0.789055 12.1298 0.539892
C 11.4886 0.236084 10.8015 0.0689898 10.084 0.0158233
C 9.61838 -0.0221527 9.16035 0.00822812 8.70231 0.106966
C 8.29777 0.198108 7.90075 0.334822 7.51146 0.479131
C 7.12217 0.623439 6.73287 0.775344 6.34349 0.912054
C 6.04582 1.01839 5.74044 1.06396 5.4275 0.98041
C 5.20612 0.927248 4.99239 0.85889 4.78627 0.782939
C 4.36643 0.631034 3.94658 0.46394 3.52673 0.312036
C 3.09924 0.160133 2.66413 0.0613945 2.20611 0.0613945
C 1.53436 0.0537993 0.885504 0.182917 0.259547 0.433559
L 0.603189 1.24865
C 1.14788 1.02702 1.62049 0.93234 2.19579 0.94374
L 2.20611 0.94374
C 2.56103 0.938093 2.84292 1.00585 3.21682 1.1401
C 3.21845 1.14069 3.22008 1.14126 3.22171 1.14185
C 3.62501 1.28777 4.04156 1.45344 4.47133 1.60916
C 4.47301 1.60978 4.47469 1.61039 4.47636 1.611
C 4.7 1.69298 4.96258 1.77641 5.21456 1.83756
L 5.21473 1.83689
C 5.70445 1.94228 6.26865 1.87205 6.64538 1.74299
C 6.6469 1.74246 6.64843 1.74192 6.64995 1.74138
C 7.05235 1.59983 7.44739 1.44581 7.82806 1.30475
C 8.20453 1.16514 8.54141 1.04764 8.89454 0.968842
C 8.89723 0.968233 8.90001 0.967625 8.90271 0.967025
C 9.29155 0.881449 9.61426 0.860436 10.0098 0.895175
L 10.0166 0.895678
C 10.6586 0.940148 11.1826 1.0658 11.7374 1.33344
C 11.7384 1.33389 11.7393 1.33432 11.7402 1.33476
C 12.1644 1.53259 12.5038 1.7612 12.8032 2.0556
C 11.4564 3.23604 10.6679 4.7823 10.7992 6.77927
C 10.9342 8.83334 11.9674 10.3018 13.5571 11.2881
C 13.1973 12.209 12.7448 13.0202 12.1557 13.8269
L 12.1488 13.8366
C 11.8609 14.2436 11.6057 14.6005 11.2973 14.9323
L 11.2968 14.9328
C 10.9913 15.266 10.7511 15.4894 10.3964 15.657
C 10.1103 15.8081 9.91067 15.846 9.56517 15.8282
L 9.56275 15.8281
C 9.19373 15.8246 8.91652 15.7343 8.53647 15.5596
L 8.52696 15.5553
L 8.51736 15.5512
C 8.20138 15.4164 7.82385 15.2524 7.43267 15.1355
L 7.42163 15.1324
C 6.78268 14.9589 6.05964 14.9166 5.42782 14.9824
L 5.42486 14.9828
C 4.85577 15.0519 4.284 15.2398 3.8137 15.4329
L 3.80732 15.4355
L 3.80099 15.4382
C 3.45725 15.5859 3.19621 15.7088 2.92297 15.768
L 2.91958 15.7688
C 2.63969 15.836 2.46531 15.866 2.23489 15.839
L 2.22656 15.8383
C 1.98629 15.8289 1.84759 15.767 1.60682 15.6105
L 1.60132 15.607
L 1.59578 15.6037
C 1.24372 15.3951 0.987422 15.1391 0.685418 14.7886
L 0 15.3581
C 0.328252 15.7379 0.687025 16.0873 1.12214 16.3531
C 1.43512 16.5506 1.77863 16.6873 2.15268 16.7176
C 2.48856 16.7481 2.80917 16.7025 3.12978 16.6266
C 3.48856 16.543 3.82444 16.3911 4.16032 16.2468
C 4.60307 16.0645 5.05346 15.9126 5.52674 15.8594
C 6.08396 15.7987 6.63362 15.829 7.17556 15.981
C 7.51146 16.0797 7.83973 16.224 8.16037 16.3607
C 8.59543 16.5582 9.04584 16.6949 9.53439 16.71
C 9.98479 16.7253 10.4046 16.6417 10.8015 16.4443
C 11.2596 16.2164 11.626 15.8898 11.9619 15.5252
C 12.3054 15.1531 12.5954 14.7505 12.8856 14.3404
Z"/>
<path id="path4_fill" d="
M 0.0438743 2.69629
C -0.0248282 3.39506 -0.00956103 4.09381 0.0667752 4.79257
C 0.135477 5.40779 0.249982 6.00782 0.402654 6.60781
C 0.952271 8.74971 1.96755 10.6561 3.41029 12.3346
L 4.09412 11.7632
C 2.71191 10.1628 1.79096 8.43506 1.27323 6.39367
C 1.27308 6.39314 1.27293 6.39252 1.27279 6.39199
C 1.12663 5.81891 1.02333 5.27888 0.959046 4.69834
C 0.958974 4.69765 0.958894 4.69696 0.958822 4.69627
C 0.885962 4.0359 0.872016 3.42741 0.937114 2.7812
L 0.937266 2.77963
C 1.01937 1.89984 1.20916 1.16172 1.61585 0.412409
L 0.822503 0
C 0.37212 0.843064 0.135477 1.7469 0.0438743 2.69629
Z"/>
<path id="path5_fill" d="
M 2.84732 0
C 1.58015 0.516468 0.641221 1.39751 0 2.58995
L 0.794469 3.00024
C 1.35704 1.93054 2.06862 1.25755 3.18579 0.817178
L 2.84732 0
Z"/>
<path id="path6_fill" d="
M 3.54077 1.10592
C 3.3999 1.96699 3.00211 2.6393 2.2992 3.30671
L 2.29693 3.30891
C 1.91719 3.68891 1.54812 3.91055 1.0292 4.07914
L 1.02258 4.08141
C 0.993191 4.09192 0.964483 4.10176 0.936296 4.11094
C 0.990265 3.84114 1.08948 3.57246 1.22735 3.27512
C 1.22807 3.27358 1.22876 3.27204 1.22947 3.27051
C 1.71683 2.22259 2.47808 1.5217 3.54077 1.10592
Z
M 4.47954 0.748124
C 4.48645 0.666692 4.49154 0.584415 4.4948 0.501287
C 4.50244 0.334191 4.48718 0.174691 4.47954 0.00759527
C 4.43374 0.00759527 4.40321 0.00759527 4.37267 0
C 4.30895 0.00528287 4.24524 0.0121989 4.18172 0.020748
C 3.98009 0.0478837 3.78037 0.0914731 3.58866 0.151516
C 3.58026 0.154146 3.57188 0.156807 3.56352 0.159501
C 2.11315 0.630407 1.05209 1.52665 0.410866 2.90899
C 0.105524 3.57737 -0.0624139 4.28373 0.021555 5.02807
C 0.0291885 5.07364 0.0368221 5.08882 0.0826233 5.08882
C 0.510101 5.11161 0.922315 5.05085 1.31926 4.91413
C 1.92994 4.70906 2.47192 4.38246 2.92993 3.93435
C 3.80554 3.08371 4.33243 2.07817 4.46561 0.88977
C 4.47087 0.842839 4.47551 0.795625 4.47954 0.748124
Z"/>
<path id="path7_fill" d="
M 8.43276 1.02713
L 8.43276 7.68441
L 0.897396 7.68441
L 0.897396 2.15709
L 8.43276 1.02713
Z
M 0 7.68441
L 0 8.56677
L 0.897396 8.56677
L 8.43276 8.56677
L 9.33014 8.56677
L 9.33014 7.68441
L 9.33014 0.892559
L 9.33014 0
L 8.43276 0.134569
L 0 1.3991
L 0 7.68441
Z"/>
<path id="path8_fill" d="
M 11.4401 1.02712
L 11.4401 9.67319
L 0.897401 9.67319
L 0.897401 2.60803
L 11.4401 1.02712
Z
M 0 10.5555
L 0.897401 10.5555
L 11.4401 10.5555
L 12.3375 10.5555
L 12.3375 9.67319
L 12.3375 0.892556
L 12.3375 0
L 11.4401 0.134568
L 0 1.85004
L 0 9.67319
L 0 10.5555
Z"/>
<path id="path9_fill" d="
M 0.897396 0.889247
L 8.43276 0.946425
L 8.43276 7.71937
L 0.897396 6.66468
L 0.897396 0.889247
Z
M 9.33014 0.0708539
L 0.897396 0.00688245
L 0 0
L 3.89184e-19 0.882453
L 0 7.43039
L 8.43276 8.61065
L 9.33014 8.73621
L 9.33014 7.84493
L 9.33014 0.0708539
Z"/>
<path id="path10_fill" d="
M 0.897401 8.02213
L 0.897401 0.88924
L 11.4401 0.969182
L 11.4401 9.4977
L 0.897401 8.02213
Z
M 0 0
L 0 0.882446
L 0 8.78784
L 11.4401 10.389
L 12.3375 10.5145
L 12.3375 9.62326
L 12.3375 0.0936181
L 0.897401 0.00688239
L 0 0
Z"/>
<path id="path11_fill" d="
M 0.441176 0
L 0 0
L 0 0.8974
L 0.441176 0.8974
L 0.441176 0
Z
M 29.5588 0.8974
L 30 0.8974
L 30 0
L 29.5588 0
L 29.5588 0.8974
Z
M 0.441176 0.8974
L 29.5588 0.8974
L 29.5588 0
L 0.441176 0
L 0.441176 0.8974
Z"/>
</defs>
</svg>
