<svg width="80" height="35" version="2.0" xmlns="http://www.w3.org/2000/svg" xmlns:xlink="http://www.w3.org/1999/xlink" xmlns:figma="http://www.figma.com/figma/ns">
<title>use</title>
<desc>Created using Figma (9000)</desc>
<g id="Canvas" transform="translate(-311 -30)" figma:type="canvas">
<g id="use" style="mix-blend-mode:normal;isolation:isolate;" figma:type="vector">
<use xlink:href="#path0_fill" transform="translate(311 30)" style="mix-blend-mode:normal;"/>
</g>
</g>
<defs>
<path id="path0_fill" d="
M 19.4781 25.3668
C 18.4539 25.1305 18.0009 24.8941 18.0009 24.4017
L 18.0009 9.53226
L 17.1738 9.53226
L 16.2875 9.86703
L 7.74 9.86703
L 7.74 7.18858
C 7.74 2.99359 9.31555 1.29985 11.7184 1.29985
C 13.1166 1.29985 15.027 2.14673 14.0817 3.38749
C 13.806 3.7617 13.6288 4.07679 13.6288 4.64795
C 13.6288 5.67206 14.3968 6.34168 15.4998 6.34168
C 16.7011 6.34168 17.5086 5.55391 17.5086 4.29343
C 17.5086 2.30428 14.6923 0 11.6789 0
C 5.51452 0 4.19498 4.72671 4.19498 8.82321
L 4.19498 9.84735
L 0.059084 9.84735
L 0 10.6942
L 4.19498 11.3048
L 4.19498 24.382
C 4.19498 24.8547 3.742 25.1305 2.87543 25.3471
L 2.12702 25.5638
L 2.04825 26.3909
L 10.1625 26.3909
L 10.1034 25.5441
L 8.98078 25.288
C 7.97633 25.0713 7.75969 24.7759 7.75969 24.382
L 7.75969 11.3048
L 14.4953 11.3048
L 14.4953 24.382
C 14.4953 24.8547 13.9438 25.1502 13.1758 25.3274
L 12.4273 25.5243
L 12.3486 26.3712
L 20.3249 26.3712
L 20.2462 25.5243
L 19.4781 25.3668
Z
M 32.0433 23.1216
L 26.903 23.1216
C 25.1895 23.1216 24.4411 22.7671 24.4411 21.9595
C 24.4411 21.3097 25.3471 20.6598 26.4894 20.9355
C 26.5091 20.9355 26.5091 20.9355 26.5288 20.9355
C 27.2574 21.1324 28.0649 21.2506 28.9118 21.2506
C 32.9689 21.2506 35.7066 18.907 35.7066 15.4209
C 35.7066 13.9635 35.2338 12.7031 34.3476 11.6987
C 35.3126 11.6987 36.2381 11.4623 36.967 10.9109
C 38.07 10.1034 38.2865 8.98078 37.617 8.07484
C 36.967 7.16888 35.8837 7.26734 35.2141 7.70063
C 34.5248 8.1536 34.4263 9.15805 34.8399 9.74891
C 35.7262 11.1472 33.5401 10.7139 31.7281 10.0246
C 31.1373 9.78828 29.9163 9.59133 28.9118 9.59133
C 24.835 9.59133 22.1172 11.935 22.1172 15.4209
C 22.1172 17.4101 23.0034 19.0645 24.6184 20.1083
C 23.1216 20.5809 22.1172 21.6641 22.1172 23.2791
C 22.1172 25.2486 23.5942 26.4303 26.0758 26.4303
L 32.2009 26.4303
C 35.4898 26.4303 35.9822 28.2028 35.9822 29.2466
C 35.9822 30.8813 33.6583 33.4022 28.6361 33.4022
C 25.9182 33.4022 23.5352 32.3584 23.5352 30.3102
C 23.5352 29.4436 24.1654 28.4982 25.1698 28.4982
C 25.288 28.4982 25.4456 28.5179 25.5638 28.5573
C 25.6031 28.577 25.6228 28.5573 25.6425 28.5179
L 25.6819 27.9074
C 25.1895 27.4347 24.5199 27.1787 23.7912 27.1787
C 22.3338 27.1787 20.8764 28.1634 20.8764 30.0541
C 20.8764 33.1068 24.9531 34.7415 28.7937 34.7415
C 31.2358 34.7415 33.4809 34.1309 35.1353 33.0083
C 37.0851 31.6888 38.1091 30.0344 38.1091 27.6711
C 38.0895 26.0364 36.5731 23.1216 32.0433 23.1216
Z
M 28.9315 10.7139
C 30.9601 10.7139 32.1614 12.4667 32.1614 15.4209
C 32.1614 18.8872 30.4874 20.128 28.9315 20.128
C 27.9665 20.128 25.7016 19.675 25.7016 15.4209
C 25.6819 12.388 26.8438 10.7139 28.9315 10.7139
Z
M 63.6532 25.3668
C 62.9442 25.1502 62.6093 24.8941 62.6093 24.4214
L 62.6093 24.9926
L 62.6292 14.8892
L 62.6292 14.8301
C 62.6292 11.738 60.8959 9.59133 58.119 9.59133
C 57.9615 9.59133 57.8235 9.59133 57.666 9.61102
C 54.9678 9.74891 53.6287 11.0881 52.9592 12.388
C 52.2698 10.6352 50.7729 9.59133 48.8824 9.59133
C 46.7946 9.59133 45.0812 10.4579 44.1358 11.9744
L 43.9782 9.84735
L 39.0545 11.6987
L 39.0349 11.6987
L 39.015 12.4667
L 39.6059 12.6046
C 40.4334 12.8409 40.6894 13.0576 40.7484 14.2195
L 40.7484 24.4411
C 40.7484 24.9138 40.3939 25.1895 39.7045 25.3865
L 39.094 25.5834
L 39.0349 26.4303
L 46.1841 26.4303
L 46.1251 25.5834
L 45.4161 25.3668
C 44.3526 25.1108 44.1162 24.8153 44.1162 24.4214
L 44.1162 14.968
C 44.1162 13.0576 45.2586 11.8562 47.1096 11.8562
C 47.7795 11.8562 49.9849 12.132 49.9849 15.6376
L 49.9849 24.4214
C 49.9849 24.8153 49.7489 25.1305 48.6655 25.4062
L 48.0355 25.6031
L 47.937 26.45
L 55.4207 26.45
L 55.3421 25.6031
L 54.7711 25.4259
C 53.5498 25.0713 53.3332 24.7956 53.3332 24.4411
L 53.3332 14.9877
C 53.3332 13.0773 54.4756 11.8759 56.3267 11.8759
C 56.9965 11.8759 59.2024 12.1516 59.2024 15.6573
L 59.2024 24.4411
C 59.2024 24.835 58.9855 25.1502 57.9025 25.4062
L 57.2326 25.6031
L 57.1541 26.45
L 64.2836 26.45
L 64.2242 25.6031
L 63.6532 25.3668
Z
M 79.9016 25.0713
C 79.882 25.0713 79.8617 25.0713 79.8422 25.0713
C 78.9758 25.0713 78.3063 24.9335 78.3063 23.2988
L 78.3063 15.4209
C 78.3063 12.0728 76.4938 9.53226 71.8068 9.53226
C 69.1874 9.53226 66.5876 11.2259 66.5876 13.2348
C 66.5876 14.6134 67.2969 15.4998 68.3996 15.4998
C 70.1524 15.4998 70.7629 13.6878 69.9359 12.5652
C 69.148 11.4623 70.5069 10.7533 71.5902 10.7533
C 74.0914 10.7533 74.9383 12.4077 74.9383 15.5391
L 74.9383 15.7952
L 74.9383 17.6662
C 72.2992 16.7798 64.8941 16.583 64.8941 22.0777
C 64.8941 27.8483 72.2598 27.8089 75.1352 24.9335
C 75.5492 26.3515 76.6719 26.6666 77.5383 26.6666
C 78.6602 26.6666 79.7633 26.1742 79.9805 25.9773
L 80 25.9576
C 80 25.9379 79.9016 25.0713 79.9016 25.0713
Z
M 74.9383 23.8109
C 73.4414 25.3274 68.498 26.647 68.498 21.9793
C 68.498 17.9616 72.5359 18.06 74.9383 18.8084
L 74.9383 23.8109
Z"/>
</defs>
</svg>
