<svg width="30" height="15" version="2.0" xmlns="http://www.w3.org/2000/svg" xmlns:xlink="http://www.w3.org/1999/xlink" xmlns:figma="http://www.figma.com/figma/ns">
<title>Icon</title>
<desc>Created using Figma (9000)</desc>
<g id="Canvas" transform="translate(-310 -3008)" figma:type="canvas">
<g id="Icon" style="mix-blend-mode:normal;" figma:type="group">
<g id="vector_networks" style="mix-blend-mode:normal;" figma:type="group">
<g id="g" style="mix-blend-mode:normal;" figma:type="group">
<g id="g" style="mix-blend-mode:normal;isolation:isolate;" figma:type="group">
<g id="g" style="mix-blend-mode:normal;isolation:isolate;" figma:type="group">
<g id="use" style="mix-blend-mode:normal;isolation:isolate;" figma:type="vector">
<use xlink:href="#path0_fill" transform="translate(311.089 3009.8)" fill="#050505" style="mix-blend-mode:normal;"/>
</g>
</g>
<g id="g" style="mix-blend-mode:normal;isolation:isolate;" figma:type="group">
<g id="use" style="mix-blend-mode:normal;isolation:isolate;" figma:type="vector">
<use xlink:href="#path1_fill" transform="translate(311.866 3009.79)" fill="#050505" style="mix-blend-mode:normal;"/>
</g>
</g>
<g id="g" style="mix-blend-mode:normal;isolation:isolate;" figma:type="group">
<g id="use" style="mix-blend-mode:normal;isolation:isolate;" figma:type="vector">
<use xlink:href="#path2_fill" transform="translate(322.821 3008.28)" fill="#FFFFFF" style="mix-blend-mode:normal;"/>
</g>
<g id="use" style="mix-blend-mode:normal;isolation:isolate;" figma:type="vector">
<use xlink:href="#path3_fill" transform="translate(322.527 3008)" fill="#050505" style="mix-blend-mode:normal;"/>
</g>
</g>
<g id="g" style="mix-blend-mode:normal;isolation:isolate;" figma:type="group">
<g id="use" style="mix-blend-mode:normal;isolation:isolate;" figma:type="vector">
<use xlink:href="#path4_fill" transform="translate(337.527 3009.31)" fill="#FFFFFF" style="mix-blend-mode:normal;"/>
</g>
<g id="use" style="mix-blend-mode:normal;isolation:isolate;" figma:type="vector">
<use xlink:href="#path5_fill" transform="translate(337.233 3009.03)" fill="#050505" style="mix-blend-mode:normal;"/>
</g>
</g>
<g id="g" style="mix-blend-mode:normal;isolation:isolate;" figma:type="group">
<g id="use" style="mix-blend-mode:normal;isolation:isolate;" figma:type="vector">
<use xlink:href="#path6_fill" transform="translate(310.294 3009.04)" fill="#FFFFFF" style="mix-blend-mode:normal;"/>
</g>
<g id="use" style="mix-blend-mode:normal;isolation:isolate;" figma:type="vector">
<use xlink:href="#path7_fill" transform="translate(310 3008.76)" fill="#050505" style="mix-blend-mode:normal;"/>
</g>
</g>
</g>
</g>
</g>
</g>
</g>
<defs>
<path id="path0_fill" d="
M 27.2333 12.923
L 27.2333 13.2021
L 27.8215 13.2021
L 27.8215 12.923
L 27.2333 12.923
Z
M 0 12.923
L 0 13.2021
L 0.588239 13.2021
L 0.588239 12.923
L 0 12.923
Z
M 0.588239 12.923
C 0.588239 6.09991 6.5468 0.558344 13.9107 0.558344
L 13.9107 0
C 6.23415 0 0 5.78006 0 12.923
L 0.588239 12.923
Z
M 13.9107 0.558344
C 21.2747 0.558344 27.2333 6.09991 27.2333 12.923
L 27.8215 12.923
C 27.8215 5.78006 21.5873 0 13.9107 0
L 13.9107 0.558344
Z"/>
<path id="path1_fill" d="
M 0.294119 0
L 0 0
L 0 0.55835
L 0.294119 0.55835
L 0.294119 0
Z
M 26.9392 0.55835
L 27.2333 0.55835
L 27.2333 0
L 26.9392 0
L 26.9392 0.55835
Z
M 0.294119 0.55835
L 26.9392 0.55835
L 26.9392 0
L 0.294119 0
L 0.294119 0.55835
Z"/>
<path id="path2_fill" d="
M 4.35733 2.06793
C 4.35733 3.21002 3.3819 4.13586 2.17866 4.13586
C 0.975418 4.13586 0 3.21002 0 2.06793
C 0 0.925842 0.975418 0 2.17866 0
C 3.3819 0 4.35733 0.925842 4.35733 2.06793
Z"/>
<path id="path3_fill" d="
M 4.35732 2.3471
C 4.35732 3.33501 3.51358 4.13587 2.47278 4.13587
L 2.47278 4.69421
C 3.83846 4.69421 4.94556 3.64338 4.94556 2.3471
L 4.35732 2.3471
Z
M 2.47278 4.13587
C 1.43198 4.13587 0.588239 3.33501 0.588239 2.3471
L 0 2.3471
C 0 3.64338 1.1071 4.69421 2.47278 4.69421
L 2.47278 4.13587
Z
M 0.588239 2.3471
C 0.588239 1.3592 1.43198 0.558342 2.47278 0.558342
L 2.47278 0
C 1.1071 0 0 1.05083 0 2.3471
L 0.588239 2.3471
Z
M 2.47278 0.558342
C 3.51358 0.558342 4.35732 1.3592 4.35732 2.3471
L 4.94556 2.3471
C 4.94556 1.05083 3.83846 0 2.47278 0
L 2.47278 0.558342
Z"/>
<path id="path4_fill" d="
M 2.17866 1.03397
C 2.17866 1.60501 1.69095 2.06793 1.08933 2.06793
C 0.48771 2.06793 0 1.60501 0 1.03397
C 0 0.462923 0.48771 0 1.08933 0
C 1.69095 0 2.17866 0.462923 2.17866 1.03397
Z"/>
<path id="path5_fill" d="
M 2.17866 1.31314
C 2.17866 1.73001 1.82263 2.06794 1.38345 2.06794
L 1.38345 2.62628
C 2.14751 2.62628 2.7669 2.03837 2.7669 1.31314
L 2.17866 1.31314
Z
M 1.38345 2.06794
C 0.944265 2.06794 0.588239 1.73001 0.588239 1.31314
L 0 1.31314
C 0 2.03837 0.619392 2.62628 1.38345 2.62628
L 1.38345 2.06794
Z
M 0.588239 1.31314
C 0.588239 0.896276 0.944265 0.558344 1.38345 0.558344
L 1.38345 0
C 0.619392 0 0 0.587914 0 1.31314
L 0.588239 1.31314
Z
M 1.38345 0.558344
C 1.82263 0.558344 2.17866 0.896276 2.17866 1.31314
L 2.7669 1.31314
C 2.7669 0.587914 2.14751 0 1.38345 0
L 1.38345 0.558344
Z"/>
<path id="path6_fill" d="
M 2.17866 1.03397
C 2.17866 1.60501 1.69095 2.06793 1.08933 2.06793
C 0.48771 2.06793 0 1.60501 0 1.03397
C 0 0.462923 0.48771 0 1.08933 0
C 1.69095 0 2.17866 0.462923 2.17866 1.03397
Z"/>
<path id="path7_fill" d="
M 2.17866 1.31314
C 2.17866 1.73001 1.82263 2.06794 1.38345 2.06794
L 1.38345 2.62628
C 2.14751 2.62628 2.7669 2.03837 2.7669 1.31314
L 2.17866 1.31314
Z
M 1.38345 2.06794
C 0.944264 2.06794 0.588239 1.73001 0.588239 1.31314
L 0 1.31314
C 0 2.03837 0.619392 2.62628 1.38345 2.62628
L 1.38345 2.06794
Z
M 0.588239 1.31314
C 0.588239 0.896276 0.944264 0.558344 1.38345 0.558344
L 1.38345 0
C 0.619392 0 0 0.587914 0 1.31314
L 0.588239 1.31314
Z
M 1.38345 0.558344
C 1.82263 0.558344 2.17866 0.896276 2.17866 1.31314
L 2.7669 1.31314
C 2.7669 0.587914 2.14751 0 1.38345 0
L 1.38345 0.558344
Z"/>
</defs>
</svg>
