<svg width="23" height="22" version="2.0" xmlns="http://www.w3.org/2000/svg" xmlns:xlink="http://www.w3.org/1999/xlink" xmlns:figma="http://www.figma.com/figma/ns">
<title>Icon</title>
<desc>Created using Figma (9000)</desc>
<g id="Canvas" transform="translate(-593 -1404)" figma:type="canvas">
<g id="Icon" style="mix-blend-mode:normal;" figma:type="group">
<g id="version_history" style="mix-blend-mode:normal;" figma:type="group">
<g id="g" style="mix-blend-mode:normal;" figma:type="group">
<g id="g" style="mix-blend-mode:normal;isolation:isolate;" figma:type="group">
<g id="g" style="mix-blend-mode:normal;isolation:isolate;" figma:type="group">
<g id="g" style="mix-blend-mode:normal;isolation:isolate;" figma:type="group">
<g id="use" style="mix-blend-mode:normal;isolation:isolate;" figma:type="vector">
<use xlink:href="#path0_fill" transform="matrix(6.12208e-17 1 -1 6.07155e-17 611.309 1408.51)" fill="#050505" style="mix-blend-mode:normal;"/>
</g>
</g>
</g>
<g id="g" style="mix-blend-mode:normal;isolation:isolate;" figma:type="group">
<g id="use" style="mix-blend-mode:normal;isolation:isolate;" figma:type="vector">
<use xlink:href="#path1_fill" transform="matrix(-1 0 0 1 615.924 1404.61)" fill="#050505" style="mix-blend-mode:normal;"/>
</g>
</g>
</g>
</g>
</g>
</g>
</g>
<defs>
<path id="path0_fill" d="
M 0.300002 5.70002
L 0 5.70002
L 0 6.30002
L 0.300002 6.30002
L 0.300002 5.70002
Z
M 7.50005 6.00002
L 7.50005 6.30002
L 7.80005 6.30002
L 7.80005 6.00002
L 7.50005 6.00002
Z
M 7.80005 0.300001
L 7.80005 0
L 7.20005 0
L 7.20005 0.300001
L 7.80005 0.300001
Z
M 0.300002 6.30002
L 7.50005 6.30002
L 7.50005 5.70002
L 0.300002 5.70002
L 0.300002 6.30002
Z
M 7.80005 6.00002
L 7.80005 0.300001
L 7.20005 0.300001
L 7.20005 6.00002
L 7.80005 6.00002
Z"/>
<path id="path1_fill" d="
M 20.7 10.5
L 20.4878 10.7122
L 20.7 10.9243
L 20.9122 10.7122
L 20.7 10.5
Z
M 10.5 21
L 10.8 21
L 10.8 20.4
L 10.5 20.4
L 10.5 21
Z
M 19.1122 8.48784
L 18.9 8.27574
L 18.4757 8.7
L 18.6878 8.91216
L 19.1122 8.48784
Z
M 22.7122 8.91216
L 22.9243 8.7
L 22.5 8.27574
L 22.2878 8.48784
L 22.7122 8.91216
Z
M 10.5 20.4
C 5.03238 20.4 0.6 15.9676 0.6 10.5
L 0 10.5
C 0 16.299 4.70101 21 10.5 21
L 10.5 20.4
Z
M 0.6 10.5
C 0.6 5.03238 5.03238 0.6 10.5 0.6
L 10.5 0
C 4.70101 0 0 4.70101 0 10.5
L 0.6 10.5
Z
M 10.5 0.6
C 15.9676 0.6 20.4 5.03238 20.4 10.5
L 21 10.5
C 21 4.70101 16.299 0 10.5 0
L 10.5 0.6
Z
M 20.9122 10.2878
L 19.1122 8.48784
L 18.6878 8.91216
L 20.4878 10.7122
L 20.9122 10.2878
Z
M 20.9122 10.7122
L 22.7122 8.91216
L 22.2878 8.48784
L 20.4878 10.2878
L 20.9122 10.7122
Z"/>
</defs>
</svg>
