<?xml version="1.0" encoding="UTF-8" standalone="no"?>
<svg width="60px" height="60px" viewBox="0 0 60 60" version="1.1" xmlns="http://www.w3.org/2000/svg" xmlns:xlink="http://www.w3.org/1999/xlink" xmlns:sketch="http://www.bohemiancoding.com/sketch/ns">
    <!-- Generator: Sketch 3.0.1 (7597) - http://www.bohemiancoding.com/sketch -->
    <title>Dribbble</title>
    <description>Created with Sketch.</description>
    <defs></defs>
    <g id="Page-1" stroke="none" stroke-width="1" fill="none" fill-rule="evenodd" sketch:type="MSPage">
        <g id="Circles" sketch:type="MSLayerGroup" transform="translate(-158.000000, -432.000000)" fill="#FFFFFF">
            <g id="Colour" transform="translate(0.000000, 432.000000)" sketch:type="MSShapeGroup">
                <path d="M188,60 C204.568543,60 218,46.5685433 218,30 C218,13.4314567 204.568543,0 188,0 C171.431457,0 158,13.4314567 158,30 C158,46.5685433 171.431457,60 188,60 Z M187.358726,25.027194 C184.826129,20.5274971 182.120302,16.8553893 181.925343,16.5951079 C177.844806,18.5220356 174.799291,22.2820664 173.849643,26.8135523 C174.235404,26.8169056 180.333139,26.8938968 187.358726,25.027194 Z M204.954114,26.3809123 C205.185826,27.5080162 205.303794,28.6693235 205.303794,29.8306307 C205.303794,30.9910662 205.185826,32.149892 204.954114,33.2794773 C204.72817,34.3822363 204.393513,35.4648757 203.955106,36.4998314 C203.526758,37.5164783 202.995465,38.496172 202.374639,39.4098062 C201.763068,40.3176727 201.058544,41.1694053 200.284607,41.9458234 C199.508994,42.7188881 198.655585,43.4224729 197.749462,44.0375312 C196.834151,44.6549367 195.854458,45.1862301 194.838683,45.6171934 C193.803727,46.0539244 192.720149,46.3885815 191.619938,46.6144583 C190.490487,46.8471088 189.329112,46.9658819 188.168677,46.9658819 C187.00737,46.9658819 185.846063,46.8471088 184.718221,46.6144583 C183.616334,46.3885815 182.532823,46.0539244 181.498672,45.6171934 C180.482964,45.1862301 179.502331,44.6549367 178.58702,44.0375312 C177.680897,43.42254 176.827488,42.7188881 176.053551,41.9458234 C175.27881,41.1694053 174.574286,40.3176727 173.961844,39.4098062 C173.344371,38.496172 172.812206,37.5164112 172.382181,36.4998314 C171.943707,35.4648757 171.608245,34.3821692 171.381496,33.2794773 C171.152266,32.149892 171.035103,30.9910662 171.035103,29.8306307 C171.035103,28.6693235 171.152199,27.5080162 171.381563,26.3809123 C171.608312,25.2781533 171.943774,24.1938373 172.382248,23.1605582 C172.812273,22.1431736 173.344438,21.162608 173.961911,20.2489068 C174.574353,19.3403025 175.278877,18.4901795 176.053619,17.7128896 C176.827555,16.9397578 177.680964,16.2378496 178.587087,15.6237303 C179.502398,15.0037092 180.483031,14.4724828 181.498739,14.0407147 C182.53289,13.6030449 183.616334,13.2675829 184.718288,13.0433828 C185.84613,12.812476 187.007437,12.6953125 188.168744,12.6953125 C189.32918,12.6953125 190.490487,12.812476 191.620005,13.0433828 C192.720216,13.26765 193.803727,13.603112 194.83875,14.0407147 C195.854458,14.4724158 196.834218,15.0037092 197.749529,15.6237303 C198.655652,16.2378496 199.509128,16.9397578 200.284674,17.7128896 C201.058611,18.4901795 201.763135,19.3403025 202.374706,20.2489068 C202.995465,21.162608 203.526758,22.1432407 203.955106,23.1605582 C204.393513,24.1938373 204.72817,25.2781533 204.954114,26.3809123 Z M189.758332,29.7670526 C189.391081,28.9354396 188.99023,28.1020829 188.57107,27.2804627 C181.036791,29.5360788 173.806989,29.3737801 173.547647,29.3637873 C173.543422,29.5210561 173.53591,29.6732949 173.53591,29.8306307 C173.53591,33.5897896 174.954079,37.0168399 177.285076,39.6081191 C177.280047,39.6005406 181.284464,32.4962856 189.181032,29.9427643 C189.371766,29.8791862 189.565921,29.8222475 189.758332,29.7670526 Z M190.190905,24.144477 C195.712212,22.0745655 197.796341,18.9018279 197.832355,18.8483096 C195.256166,16.5766649 191.873513,15.1987358 188.168677,15.1987358 C186.979739,15.1987358 185.825943,15.3426585 184.720702,15.6087076 C184.939873,15.9032595 187.688421,19.54948 190.190905,24.144477 Z M193.881456,43.302895 C193.664767,42.0244242 192.814711,37.5431704 190.755664,32.1917409 C190.72307,32.2025385 190.690476,32.2118606 190.65862,32.22353 C182.025048,35.2333216 179.205638,41.2989151 179.175134,41.3651286 C181.659294,43.2969932 184.775093,44.4625256 188.168677,44.4625256 C190.195063,44.4625256 192.125277,44.0499383 193.881456,43.302895 Z M193.497438,31.5139763 C195.416788,36.7884816 196.196626,41.0840309 196.345579,41.965876 C199.631188,39.7486885 201.964667,36.2279476 202.615605,32.1498249 C202.314414,32.0527811 198.220531,30.7567391 193.497438,31.5139763 Z M199.468956,20.5350755 C199.441325,20.5743089 197.094433,23.965412 191.317137,26.3249126 C191.656757,27.0227298 191.985646,27.7329541 192.289319,28.4467329 C192.397295,28.7027892 192.502722,28.9538156 192.605601,29.2047749 C197.632366,28.5722125 202.584688,29.6364759 202.796414,29.6799344 C202.762948,26.2111023 201.522101,23.0275001 199.468956,20.5350755 Z" id="Dribbble"></path>
            </g>
        </g>
    </g>
</svg>