<svg width="60" height="60" viewBox="0 0 60 60" xmlns="http://www.w3.org/2000/svg" xmlns:sketch="http://www.bohemiancoding.com/sketch/ns"><title>github_icon</title><path d="M30 60c16.569 0 30-13.431 30-30 0-16.569-13.431-30-30-30-16.569 0-30 13.431-30 30 0 16.569 13.431 30 30 30zm-12.457-29.431c-.441-1.277-.637-2.739-.637-4.372 0-2.9.92-3.994 2.154-5.539-.944-3.306.339-5.565.339-5.565s1.985-.404 5.736 2.236c2.033-.856 7.454-.928 10.02-.19 1.573-1.023 4.453-2.473 5.615-2.067.315.498.992 1.948.411 5.135.394.699 2.444 2.188 2.452 6.397-.033 1.553-.197 2.863-.502 3.972.058 0-.389 1.374-.496 1.371-1.36 2.936-4.15 4.032-8.659 4.487 1.461.904 1.88 2.038 1.88 5.106s-.042 3.48-.032 4.186c.015 1.158 1.743 1.712 1.678 2.085-.065.372-1.445.312-2.09.09-1.828-.626-1.645-2.12-1.645-2.12l-.061-4.102s.125-2.208-.706-2.208v6.714c0 1.459 1.041 1.903 1.041 2.442 0 .928-1.899-.088-2.485-.666-.892-.88-.79-2.746-.769-4.222.02-1.425-.014-4.542-.014-4.542l-.605.012s.248 6.809-.319 8.05c-.734 1.593-2.948 2.141-2.948 1.416 0-.488.545-.333.847-1.427.258-.93.169-7.872.169-7.872s-.71.412-.71 1.712c0 .595-.016 3.995-.016 5.006 0 1.273-1.839 1.998-2.723 1.998-.447 0-1.004-.022-1.004-.255 0-.589 1.682-.934 1.682-2.158 0-1.062-.023-3.793-.023-3.793s-.848.143-2.058.143c-3.049 0-4.014-1.912-4.473-2.982-.597-1.394-1.372-2.048-2.195-2.571-.505-.322-.622-.7-.037-.809 2.699-.499 3.389 3.008 5.192 3.567 1.287.399 2.941.226 3.764-.297.108-1.071.895-1.998 1.549-2.486-4.585-.433-7.303-1.998-8.713-4.513-.018 0-.664-1.367-.61-1.367z" sketch:type="MSShapeGroup" fill="#fff"/></svg>