<svg width="73" height="73" viewBox="0 0 73 73" xmlns="http://www.w3.org/2000/svg" xmlns:sketch="http://www.bohemiancoding.com/sketch/ns"><title>Guitar</title><path d="M54.232 11.904l-22.479 22.479c-.239 0-.49.038-.753.117-5 1.5-2.083-9.5-4-9.5-5 0-8.831 15-10.5 15-9.113 0-16.5 7.387-16.5 16.5s7.387 16.5 16.5 16.5 17-4.5 17-17.5c0-1.199 11.5-4.5 10.5-8-.883-3.092-7.298-2.683-8.722-3.914l24.99-24.99c1.569.332 3.267-.094 4.504-1.289l6.486-6.263c1.983-1.915 2.039-5.075.112-7.07l-2.073-2.147c-1.921-1.989-5.087-2.049-7.069-.134l-6.486 6.263c-1.106 1.068-1.613 2.524-1.51 3.948z" sketch:type="MSShapeGroup" fill="#84BD00"/></svg>