<svg width="61" height="66" viewBox="0 0 61 66" xmlns="http://www.w3.org/2000/svg" xmlns:sketch="http://www.bohemiancoding.com/sketch/ns"><title>♥ 2</title><path d="M30.507 11c.696-3.686 3.938-7.686 6.729-9.265 1.816-.981 4.995-1.735 7.72-1.735 3.179 0 6.357 1.056 9.006 2.866 4.617 3.168 7.038 8.674 7.038 15.915 0 5.657-1.362 10.409-4.617 16.142-3.784 6.713-8.628 12.974-16.045 20.743-8.022 8.448-8.022 8.448-9.839 10.334-13.017-13.351-14.38-14.859-19.375-21.497-7.417-9.73-11.125-18.48-11.125-25.872 0-4.375 1.438-9.051 3.784-12.37 3.027-4.224 7.19-6.261 12.866-6.261 3.254 0 5.676.679 7.644 2.037 2.564 1.804 5.579 5.578 6.199 8.963h.013z" sketch:type="MSShapeGroup" fill="#84BD00"/></svg>