<?xml version="1.0" encoding="UTF-8" standalone="no"?>
<svg width="94px" height="94px" viewBox="0 0 94 94" version="1.1" xmlns="http://www.w3.org/2000/svg" xmlns:xlink="http://www.w3.org/1999/xlink" xmlns:sketch="http://www.bohemiancoding.com/sketch/ns">
    <!-- Generator: Sketch 3.0.3 (7891) - http://www.bohemiancoding.com/sketch -->
    <title>iOS 8</title>
    <desc>Created with Sketch.</desc>
    <defs></defs>
    <g id="Page-1" stroke="none" stroke-width="1" fill="none" fill-rule="evenodd" sketch:type="MSPage">
        <g id="Desktop-HD" sketch:type="MSArtboardGroup" transform="translate(-917.000000, -1338.000000)" stroke="#3A99D8" stroke-width="2">
            <g id="iOS-8-UI-Kit-+" sketch:type="MSLayerGroup" transform="translate(786.000000, 1340.000000)">
                <path d="M163.87775,-0.444444444 L191.12225,-0.444444444 C200.1575,-0.444444444 204.674,-0.444444444 209.53775,1.09875004 C214.84775,3.03865843 219.02975,7.23614744 220.9625,12.5658143 C222.5,17.4468255 222.5,21.981559 222.5,31.0495203 L222.5,58.3949267 C222.5,67.4636408 222.5,71.9968687 220.9625,76.8786327 C219.02975,82.2082995 214.84775,86.4057886 209.53775,88.3449442 C204.674,89.8888914 200.1575,89.8888914 191.12225,89.8888914 L163.87775,89.8888914 C154.8425,89.8888914 150.32525,89.8888914 145.46225,88.3449442 C140.15225,86.4057886 135.97025,82.2082995 134.0375,76.8786327 C132.5,71.9968687 132.5,67.4636408 132.5,58.3949267 L132.5,31.0495203 C132.5,21.981559 132.5,17.4468255 134.0375,12.5658143 C135.97025,7.23614744 140.15225,3.03865843 145.46225,1.09875004 C150.32525,-0.444444444 154.8425,-0.444444444 163.87775,-0.444444444 Z M192.580799,28.6678363 C192.580799,26.6265005 192.208158,24.750301 191.462865,23.0391813 C190.717573,21.3280616 189.689084,19.8571212 188.377368,18.6263158 C187.065653,17.3955104 185.545278,16.4499058 183.816199,15.7894737 C182.087119,15.1290415 180.209009,14.7988304 178.181813,14.7988304 C176.154616,14.7988304 174.261601,15.1290415 172.50271,15.7894737 C170.743818,16.4499058 169.223444,17.3955104 167.94154,18.6263158 C166.659636,19.8571212 165.646053,21.3280616 164.90076,23.0391813 C164.155467,24.750301 163.782827,26.6265005 163.782827,28.6678363 C163.782827,30.5890934 164.140562,32.4052546 164.856043,34.1163743 C165.571524,35.8274939 166.570202,37.3434632 167.852105,38.6643275 C169.134009,39.9851918 170.654384,41.0358635 172.413275,41.8163743 C174.172166,42.596885 176.094993,42.9871345 178.181813,42.9871345 C180.268633,42.9871345 182.19146,42.596885 183.950351,41.8163743 C185.709242,41.0358635 187.229617,39.9851918 188.51152,38.6643275 C189.793424,37.3434632 190.792102,35.8274939 191.507583,34.1163743 C192.223064,32.4052546 192.580799,30.5890934 192.580799,28.6678363 Z M194.906101,60.9988304 C194.906101,58.5972589 194.473838,56.3908483 193.609298,54.3795322 C192.744759,52.3682161 191.552308,50.6271029 190.03191,49.1561404 C188.511513,47.6851778 186.737742,46.5444485 184.710546,45.7339181 C182.683349,44.9233878 180.507127,44.5181287 178.181813,44.5181287 C175.856499,44.5181287 173.680277,44.9233878 171.65308,45.7339181 C169.625883,46.5444485 167.852113,47.6851778 166.331715,49.1561404 C164.811318,50.6271029 163.618867,52.3682161 162.754327,54.3795322 C161.889788,56.3908483 161.457524,58.5972589 161.457524,60.9988304 C161.457524,63.2803233 161.859976,65.411686 162.664893,67.3929825 C163.469809,69.3742789 164.602637,71.1003825 166.063411,72.571345 C167.524185,74.0423075 169.28305,75.1980465 171.340058,76.0385965 C173.397067,76.8791465 175.677629,77.2994152 178.181813,77.2994152 C180.685997,77.2994152 182.966559,76.8791465 185.023567,76.0385965 C187.080576,75.1980465 188.83944,74.0423075 190.300214,72.571345 C191.760988,71.1003825 192.893817,69.3742789 193.698733,67.3929825 C194.503649,65.411686 194.906101,63.2803233 194.906101,60.9988304 Z" id="iOS-8" sketch:type="MSShapeGroup"></path>
            </g>
        </g>
    </g>
</svg>