<svg width="101" height="38" viewBox="0 0 101 38" xmlns="http://www.w3.org/2000/svg" xmlns:sketch="http://www.bohemiancoding.com/sketch/ns"><title>Keyboard</title><g transform="translate(0 0)" sketch:type="MSShapeGroup" fill="none"><rect fill="#84BD00" width="100.163" height="37.992" rx="3"/><g transform="translate(2.087 27.825)" fill="#fff"><rect x="17.737" width="7.304" height="6.956" rx="2"/><rect x="70.949" width="7.304" height="6.956" rx="2"/><rect id="Arrow-key" x="79.817" y="3.746" width="4.695" height="3.211" rx="2"/><rect id="Arrow-key" x="85.556" y="3.746" width="4.695" height="3.211" rx="2"/><rect id="Arrow-key" x="85.556" width="4.695" height="3.211" rx="2"/><rect x="91.294" y="3.746" width="4.695" height="3.211" rx="2"/><rect x="8.869" width="7.304" height="6.956" rx="2"/><rect width="7.304" height="6.956" rx="2"/><rect x="26.606" width="42.778" height="6.956" rx="2"/></g><g transform="translate(2.087 19.799)" fill="#fff"><rect x="70.949" width="7.304" height="6.956" rx="2"/><rect x="62.08" width="7.304" height="6.956" rx="2"/><rect x="53.211" width="7.304" height="6.956" rx="2"/><rect x="44.343" width="7.304" height="6.956" rx="2"/><rect x="35.474" width="7.304" height="6.956" rx="2"/><rect x="26.606" width="7.304" height="6.956" rx="2"/><rect x="17.737" width="7.304" height="6.956" rx="2"/><rect width="16.172" height="6.956" rx="2"/><rect x="79.817" width="16.172" height="6.956" rx="2"/></g><g transform="translate(2.087 11.772)" fill="#fff"><rect x="83.991" width="11.999" height="6.956" rx="2"/><rect id="Rectangle-30" x="75.644" width="7.304" height="6.956" rx="2"/><rect id="Rectangle-29" x="66.775" width="7.304" height="6.956" rx="2"/><rect id="Rectangle-28" x="57.907" width="7.304" height="6.956" rx="2"/><rect id="Rectangle-27" x="49.038" width="7.304" height="6.956" rx="2"/><rect id="Rectangle-26" x="40.169" width="7.304" height="6.956" rx="2"/><rect id="Rectangle-25" x="31.301" width="7.304" height="6.956" rx="2"/><rect id="Rectangle-24" x="22.432" width="7.304" height="6.956" rx="2"/><rect id="Rectangle-23" x="13.564" width="7.304" height="6.956" rx="2"/><rect width="11.999" height="6.956" rx="2"/></g><g transform="translate(2.087 3.211)" fill="#fff"><rect x="79.817" width="7.304" height="6.956" rx="2"/><rect x="88.686" width="7.304" height="6.956" rx="2"/><rect x="70.949" width="7.304" height="6.956" rx="2"/><rect x="62.08" width="7.304" height="6.956" rx="2"/><rect x="53.211" width="7.304" height="6.956" rx="2"/><rect x="44.343" width="7.304" height="6.956" rx="2"/><rect x="35.474" width="7.304" height="6.956" rx="2"/><rect x="26.606" width="7.304" height="6.956" rx="2"/><rect x="17.737" width="7.304" height="6.956" rx="2"/><rect x="8.869" width="7.304" height="6.956" rx="2"/><rect width="7.304" height="6.956" rx="2"/></g></g></svg>