<svg width="201" height="76" viewBox="0 0 201 76" xmlns="http://www.w3.org/2000/svg" xmlns:sketch="http://www.bohemiancoding.com/sketch/ns"><title>Keyboard 2</title><g transform="translate(0 0)" sketch:type="MSShapeGroup" stroke="#6F9742" fill="none"><rect fill="#84BD00" width="200.326" height="75.984" rx="3"/><g transform="translate(4.173 55.65)" fill="#fff"><rect x="35.474" width="14.607" height="13.913" rx="2"/><rect x="141.897" width="14.607" height="13.913" rx="2"/><rect id="Arrow-key" x="159.634" y="7.491" width="9.39" height="6.421" rx="2"/><rect id="Arrow-key" x="171.111" y="7.491" width="9.39" height="6.421" rx="2"/><rect id="Arrow-key" x="171.111" width="9.39" height="6.421" rx="2"/><rect x="182.588" y="7.491" width="9.39" height="6.421" rx="2"/><rect x="17.737" width="14.607" height="13.913" rx="2"/><rect width="14.607" height="13.913" rx="2"/><rect x="53.211" width="85.556" height="13.913" rx="2"/></g><g transform="translate(4.173 39.597)" fill="#fff"><rect x="141.897" width="14.607" height="13.913" rx="2"/><rect x="124.16" width="14.607" height="13.913" rx="2"/><rect x="106.423" width="14.607" height="13.913" rx="2"/><rect x="88.686" width="14.607" height="13.913" rx="2"/><rect x="70.949" width="14.607" height="13.913" rx="2"/><rect x="53.211" width="14.607" height="13.913" rx="2"/><rect x="35.474" width="14.607" height="13.913" rx="2"/><rect width="32.344" height="13.913" rx="2"/><rect x="159.634" width="32.344" height="13.913" rx="2"/></g><g transform="translate(4.173 23.544)" fill="#fff"><rect x="167.981" width="23.997" height="13.913" rx="2"/><rect id="Rectangle-30" x="151.288" width="14.607" height="13.913" rx="2"/><rect id="Rectangle-29" x="133.55" width="14.607" height="13.913" rx="2"/><rect id="Rectangle-28" x="115.813" width="14.607" height="13.913" rx="2"/><rect id="Rectangle-27" x="98.076" width="14.607" height="13.913" rx="2"/><rect id="Rectangle-26" x="80.339" width="14.607" height="13.913" rx="2"/><rect id="Rectangle-25" x="62.602" width="14.607" height="13.913" rx="2"/><rect id="Rectangle-24" x="44.865" width="14.607" height="13.913" rx="2"/><rect id="Rectangle-23" x="27.127" width="14.607" height="13.913" rx="2"/><rect width="23.997" height="13.913" rx="2"/></g><g transform="translate(4.173 6.421)" fill="#fff"><rect x="159.634" width="14.607" height="13.913" rx="2"/><rect x="177.372" width="14.607" height="13.913" rx="2"/><rect x="141.897" width="14.607" height="13.913" rx="2"/><rect x="124.16" width="14.607" height="13.913" rx="2"/><rect x="106.423" width="14.607" height="13.913" rx="2"/><rect x="88.686" width="14.607" height="13.913" rx="2"/><rect x="70.949" width="14.607" height="13.913" rx="2"/><rect x="53.211" width="14.607" height="13.913" rx="2"/><rect x="35.474" width="14.607" height="13.913" rx="2"/><rect x="17.737" width="14.607" height="13.913" rx="2"/><rect width="14.607" height="13.913" rx="2"/></g></g></svg>