<svg width="54" height="100" viewBox="0 0 54 100" xmlns="http://www.w3.org/2000/svg" xmlns:sketch="http://www.bohemiancoding.com/sketch/ns"><title>Shape</title><path d="M46.563 100h-39.126c-4.105 0-7.437-3.304-7.437-7.38v-85.24c0-4.077 3.332-7.38 7.437-7.38h39.126c4.108 0 7.437 3.304 7.437 7.38v85.237c0 4.077-3.329 7.383-7.437 7.383zm-20.336-4.615c2.556 0 4.63-2.065 4.63-4.618 0-2.546-2.071-4.613-4.63-4.613-2.554 0-4.627 2.065-4.627 4.613 0 2.553 2.071 4.618 4.627 4.618zm23.144-75.385h-44.743v61.538h44.743v-61.538z" sketch:type="MSShapeGroup" fill="#84BD00"/></svg>