<?xml version="1.0" encoding="UTF-8" standalone="no"?>
<svg width="55px" height="91px" viewBox="0 0 55 91" version="1.1" xmlns="http://www.w3.org/2000/svg" xmlns:xlink="http://www.w3.org/1999/xlink" xmlns:sketch="http://www.bohemiancoding.com/sketch/ns">
    <!-- Generator: Sketch 3.0.3 (7891) - http://www.bohemiancoding.com/sketch -->
    <title>Mic 3</title>
    <desc>Created with Sketch.</desc>
    <defs>
        <path d="M190.640854,67.7599797 C203.868185,65.8963046 214.072096,53.9196075 214.072096,39.4347109 L214.072096,34.1365211 L214.072096,31.4047619 L207.313084,31.4047619 L207.313084,34.1221343 L207.313084,39.4924065 C207.313084,51.2935611 198.234746,60.8690476 187.036048,60.8690476 C175.834888,60.8690476 166.759012,51.2983994 166.759012,39.4924065 L166.759012,33.9978841 L166.759012,31.4047619 L160,31.4047619 L160,34.0393008 L160,39.4347109 C160,53.9257942 170.201493,65.8976868 183.431242,67.7601947 L183.431242,82.7440476 L169.012016,82.7440476 L169.012016,89.8869048 L205.510681,89.8869048 L205.510681,82.7440476 L190.640854,82.7440476 L190.640854,67.7599797 Z M186.738652,0.214285714 C179.282807,0.214285714 173.238652,6.25547377 173.238652,13.7153222 L173.238652,40.2846778 C173.238652,47.7410944 179.281168,53.7857143 186.738652,53.7857143 C194.194496,53.7857143 200.238652,47.7445262 200.238652,40.2846778 L200.238652,13.7153222 C200.238652,6.25890564 194.196135,0.214285714 186.738652,0.214285714 Z" id="path-1"></path>
    </defs>
    <g id="Page-1" stroke="none" stroke-width="1" fill="none" fill-rule="evenodd" sketch:type="MSPage">
        <g id="Desktop-HD" sketch:type="MSArtboardGroup" transform="translate(-460.000000, -1340.000000)">
            <g id="The-Artboard" sketch:type="MSLayerGroup" transform="translate(300.000000, 1340.000000)">
                <mask id="mask-2" sketch:name="Mic 3" fill="white">
                    <use xlink:href="#path-1"></use>
                </mask>
                <use id="Mic-3" fill="#3A99D8" sketch:type="MSShapeGroup" xlink:href="#path-1"></use>
            </g>
        </g>
    </g>
</svg>