<svg width="60" height="60" viewBox="0 0 60 60" xmlns="http://www.w3.org/2000/svg" xmlns:sketch="http://www.bohemiancoding.com/sketch/ns"><title>rdio_icon</title><g sketch:type="MSShapeGroup" fill="none"><circle fill="#fff" cx="30" cy="30" r="30"/><path d="M47.896 28c.069.657.104 1.325.104 2 0 10.493-8.507 19-19 19s-19-8.507-19-19 8.507-19 19-19c.675 0 1.343.035 2 .104v11.323c-.782-.276-1.623-.427-2.5-.427-4.142 0-7.5 3.358-7.5 7.5 0 4.142 3.358 7.5 7.5 7.5 4.142 0 7.5-3.358 7.5-7.5 0-.514-.052-1.015-.15-1.5h12.046zM35.9 12.359v17.8l12.172.841v-8.067c0-1.989 5.739-4.972 3.517-4.972-2.221 0-15.689-2.258-15.689-5.602z" fill="#2F81B7"/></g></svg>