<svg width="108" height="100" viewBox="0 0 108 100" xmlns="http://www.w3.org/2000/svg" xmlns:sketch="http://www.bohemiancoding.com/sketch/ns"><title>Triangle 1</title><path d="M54.075 100l53.272-61.41c.36-.416.206-.752-.347-.752h-106c-.552 0-.709.334-.346.752l53.421 61.41zm-53.075-78.378c-.552 0-.629-.249-.171-.556l26.88-18.019 26.265-3.047 26.362 2.955 26.836 18.108c.457.309.381.559-.172.559h-106zm0 0c-.552 0-1 .451-1 1.002v14.212c0 .553.447 1.002 1 1.002h106c.552 0 1-.451 1-1.002v-14.212c0-.553-.447-1.002-1-1.002h-106z" sketch:type="MSShapeGroup" fill="#84BD00"/></svg>