<?xml version="1.0" encoding="UTF-8" standalone="no"?>
<svg width="94px" height="93px" viewBox="0 0 94 93" version="1.1" xmlns="http://www.w3.org/2000/svg" xmlns:xlink="http://www.w3.org/1999/xlink" xmlns:sketch="http://www.bohemiancoding.com/sketch/ns">
    <!-- Generator: Sketch 3.0.3 (7891) - http://www.bohemiancoding.com/sketch -->
    <title>Gem 2</title>
    <desc>Created with Sketch.</desc>
    <defs></defs>
    <g id="Page-1" stroke="none" stroke-width="1" fill="none" fill-rule="evenodd" sketch:type="MSPage">
        <g id="Desktop-HD" sketch:type="MSArtboardGroup" transform="translate(-675.000000, -969.000000)" stroke="#3A99D8" stroke-width="2">
            <g id="SketchCasts" sketch:type="MSLayerGroup" transform="translate(544.000000, 970.000000)">
                <path d="M177.519638,89.7814254 L222.736987,35.2326658 C222.947132,34.9791542 222.856103,34.7736425 222.51154,34.7736425 L132.605947,34.7736425 C132.271292,34.7736425 132.164826,34.9728247 132.379848,35.2326658 L177.519638,89.7814254 Z M134.032503,20.7187905 C132.928139,20.7187905 132.738748,20.1659896 133.614692,19.4799987 L153.203116,4.13942246 C154.076729,3.45525664 155.672013,2.78869983 156.764793,2.65081402 L175.79331,0.249816642 C176.886757,0.11184672 178.663289,0.10873281 179.759812,0.242679023 L198.853494,2.57507648 C199.950686,2.7091044 201.533796,3.37312751 202.394585,4.06230912 L221.644109,19.4742369 C222.502608,20.1615848 222.29626,20.7187905 221.198931,20.7187905 L134.032503,20.7187905 Z M209.717418,20.7187905 L132.994514,20.7187905 C132.445259,20.7187905 132,21.1705021 132,21.7183135 L132,33.7741195 C132,34.3261408 132.447282,34.7736425 132.992238,34.7736425 L222.12525,34.7736425 C222.673248,34.7736425 223.117488,34.3219308 223.117488,33.7741195 L223.117488,22.0158447 C223.117488,21.2995014 222.54206,20.7187905 221.837054,20.7187905 L209.717418,20.7187905 Z" id="Gem-2" sketch:type="MSShapeGroup"></path>
            </g>
        </g>
    </g>
</svg>