<svg width="60" height="60" viewBox="0 0 60 60" xmlns="http://www.w3.org/2000/svg" xmlns:sketch="http://www.bohemiancoding.com/sketch/ns"><title>Oval 68</title><path d="M30 60c16.569 0 30-13.431 30-30 0-16.569-13.431-30-30-30-16.569 0-30 13.431-30 30 0 16.569 13.431 30 30 30zm2.531-43.579c-10.838-1.331-21.055 1.891-21.055 1.891-1.6.426-2.692 2.102-2.441 3.732l-.1-.647c.252 1.635 1.747 2.58 3.344 2.16 0 0 8.656-2.956 19.574-1.616 10.918 1.341 18.601 6.303 18.601 6.303 1.441.815 3.166.251 3.856-1.261l-.261.573c.689-1.511.077-3.402-1.383-4.186 0 0-9.137-5.598-20.135-6.948zm-1.345 10.307c-10.785-1.708-17.757 1.046-17.757 1.046-1.581.469-2.574 2.169-2.223 3.77l-.222-1.012c.353 1.613 1.945 2.613 3.571 2.281 0 0 7.168-2.03 15.772-.667 8.604 1.363 13.744 4.219 13.744 4.219 1.498.708 3.452.158 4.364-1.23l-.598.91c.912-1.388.506-3.229-.927-4.035 0 0-4.78-3.549-15.724-5.282zm-1.109 9.259c-10.291-1.63-16.175.892-16.175.892-1.046.34-1.668 1.473-1.386 2.542l.05.189c.281 1.064 1.371 1.712 2.446 1.468 0 0 7.184-1.969 13.002-1.047 5.818.921 13.492 4.036 13.492 4.036 1.016.393 2.116-.136 2.464-1.199l-.029.087c.345-1.055-.116-2.423-1.071-2.985 0 0-2.503-2.353-12.794-3.983z" sketch:type="MSShapeGroup" fill="#fff"/></svg>