<?xml version="1.0" encoding="UTF-8" standalone="no"?>
<svg width="60px" height="60px" viewBox="0 0 60 60" version="1.1" xmlns="http://www.w3.org/2000/svg" xmlns:xlink="http://www.w3.org/1999/xlink" xmlns:sketch="http://www.bohemiancoding.com/sketch/ns">
    <!-- Generator: Sketch 3.0.1 (7597) - http://www.bohemiancoding.com/sketch -->
    <title>Oval 68</title>
    <description>Created with Sketch.</description>
    <defs></defs>
    <g id="Page-1" stroke="none" stroke-width="1" fill="none" fill-rule="evenodd" sketch:type="MSPage">
        <g id="Circles" sketch:type="MSLayerGroup" transform="translate(-953.000000, -571.000000)" fill="#FFFFFF">
            <g id="Colour" transform="translate(0.000000, 432.000000)" sketch:type="MSShapeGroup">
                <g id="Spotify-2" transform="translate(953.000000, 139.000000)">
                    <path d="M30,60 C46.5685433,60 60,46.5685433 60,30 C60,13.4314567 46.5685433,0 30,0 C13.4314567,0 0,13.4314567 0,30 C0,46.5685433 13.4314567,60 30,60 Z M32.5307791,16.42052 C21.6927286,15.089775 11.4756175,18.3110208 11.4756175,18.3110208 C9.87551682,18.7370197 8.78349433,20.413088 9.0346989,22.042829 L8.93490507,21.3953962 C9.18692363,23.030418 10.6815481,23.9752617 12.2793164,23.5558384 C12.2793164,23.5558384 20.9350483,20.5995686 31.853056,21.9401311 C42.7710637,23.2806935 50.454497,28.2431611 50.454497,28.2431611 C51.8952746,29.0577563 53.6208323,28.4943809 54.3100087,26.9818184 L54.0489285,27.5548213 C54.7374912,26.0436058 54.1256081,24.1527877 52.6656676,23.368523 C52.6656676,23.368523 43.5287439,17.7709003 32.5307791,16.42052 Z M31.1857176,26.7275336 C20.4007117,25.0193567 13.429087,27.7739873 13.429087,27.7739873 C11.8481153,28.2428784 10.8553616,29.9429827 11.2058346,31.5444314 L10.9843072,30.5321856 C11.3374105,32.1456533 12.9295741,33.1453869 14.5554227,32.8127558 C14.5554227,32.8127558 21.7232072,30.7831102 30.3275324,32.1459015 C38.9318576,33.5086927 44.0711926,36.3648005 44.0711926,36.3648005 C45.5694198,37.0731733 47.5228906,36.5228759 48.4348776,35.1349373 L47.8372065,36.0445236 C48.7489759,34.6569161 48.3429974,32.8157896 46.9098614,32.0096962 C46.9098614,32.0096962 42.1298552,28.4609147 31.1857176,26.7275336 Z M30.0763867,35.9868479 C19.7849123,34.3568388 13.9014239,36.879326 13.9014239,36.879326 C12.8551079,37.219615 12.2332576,38.3523865 12.5155659,39.4211152 L12.5655815,39.6104579 C12.8465092,40.6739603 13.936955,41.3223342 15.0112294,41.0779888 C15.0112294,41.0779888 22.1955626,39.1091995 28.0136219,40.0306893 C33.8316812,40.9521791 41.5055085,44.0662384 41.5055085,44.0662384 C42.5212392,44.4589991 43.6217711,43.930358 43.9695846,42.8672398 L43.940964,42.9547208 C44.286105,41.8997715 43.8251862,40.5314064 42.8704492,39.9694888 C42.8704492,39.9694888 40.367861,37.6168569 30.0763867,35.9868479 Z" id="Oval-68"></path>
                </g>
            </g>
        </g>
    </g>
</svg>