<svg width="60" height="60" viewBox="0 0 60 60" xmlns="http://www.w3.org/2000/svg" xmlns:sketch="http://www.bohemiancoding.com/sketch/ns"><title>twitter_icon</title><path d="M30 60c16.569 0 30-13.431 30-30 0-16.569-13.431-30-30-30-16.569 0-30 13.431-30 30 0 16.569 13.431 30 30 30zm4.167-41.717c-2.619.953-4.275 3.411-4.086 6.101l.063 1.038-1.048-.127c-3.814-.487-7.145-2.14-9.974-4.915l-1.383-1.377-.356 1.017c-.754 2.267-.272 4.661 1.299 6.271.838.89.65 1.017-.796.487-.503-.169-.943-.297-.985-.233-.147.148.356 2.076.754 2.839.545 1.059 1.655 2.097 2.871 2.712l1.027.487-1.215.021c-1.173 0-1.215.021-1.09.466.419 1.377 2.074 2.839 3.918 3.474l1.299.445-1.132.678c-1.676.975-3.646 1.525-5.616 1.568-.943.021-1.718.106-1.718.169 0 .212 2.556 1.398 4.044 1.864 4.463 1.377 9.765.784 13.746-1.568 2.829-1.674 5.658-5 6.978-8.22.712-1.716 1.425-4.851 1.425-6.356 0-.975.063-1.102 1.236-2.267.691-.678 1.341-1.419 1.467-1.631.21-.403.189-.403-.88-.042-1.781.636-2.033.551-1.152-.403.65-.678 1.425-1.907 1.425-2.267 0-.064-.314.042-.671.233-.377.212-1.215.53-1.844.72l-1.132.36-1.027-.699c-.566-.381-1.362-.805-1.781-.932-1.069-.297-2.703-.254-3.667.085z" sketch:type="MSShapeGroup" fill="#fff"/></svg>