<svg viewBox="0 0 571 480" xmlns="http://www.w3.org/2000/svg"><g fill="none" fill-rule="evenodd" transform="translate(15-31)" stroke="#000" stroke-width="15"><path d="m351.82 0c54.22 0 81.33 0 110.52 9.227 31.867 11.599 56.965 36.697 68.56 68.56 9.227 29.18 9.227 56.3 9.227 110.52v163.51c0 54.22 0 81.33-9.227 110.52-11.599 31.867-36.697 56.965-68.56 68.56-29.19 9.232-56.29 9.232-110.52 9.232h-163.51c-54.22 0-81.33 0-110.52-9.232-31.867-11.595-56.965-36.693-68.56-68.56-9.227-29.19-9.227-56.29-9.227-110.52v-163.51c0-54.22 0-81.33 9.227-110.52 11.599-31.867 36.697-56.965 68.56-68.56 29.18-9.227 56.29-9.227 110.52-9.227h163.51"/><rect x="139.42" y="138.42" width="264.16" height="264.16" rx="5.283"/></g></svg>