<svg viewBox="0 0 548 480" xmlns="http://www.w3.org/2000/svg"><g fill="none" fill-rule="evenodd" transform="translate(4-29)"><path opacity=".05" fill="#000" d="m19.877 24.908h498.59v499.83h-498.59z"/><g stroke="#000" stroke-width="8"><path d="m0 0h125.89v126.2h-125.89z"/><path d="m26.503 403.51h117.61v112.92h-117.61z"/><path d="m154.05 405.17h117.61v71.4h-117.61z"/><path d="m283.25 405.17h79.51v28.23h-79.51z"/><path d="m283.25 445.03h79.51v28.23h-79.51z"/><path d="m283.25 486.54h79.51v28.23h-79.51z"/><path d="m154.05 488.2h117.61v28.23h-117.61z"/><path d="m0 146.13h540v212.55h-540z"/><path d="M 0,378.606 H392.577 V543 H0 z"/><path d="m412.45 378.61h125.89v164.39h-125.89z"/><path d="m424.05 8.303h49.693v48.16h-49.693z"/><path d="m490.31 8.303h49.693v48.16h-49.693z"/><path d="m424.05 73.06h49.693v48.16h-49.693z"/><path d="m490.31 73.06h49.693v48.16h-49.693z"/><path d="m135.83 97.97h125.89v28.23h-125.89z"/><path d="m137.49 13.284h162.33v21.587h-162.33z"/><path d="m139.97 52h204.57"/><path d="m139.97 68h222.79"/><path d="m139.97 85h169.79"/><path d="m6.626 6.642l112.64 112.92"/><path d="m160.67 413.48l104.36 54.798"/><path d="m433.16 407h87.79"/><path d="m433.16 424h77.853"/><path d="m433.16 440h87.79"/><path d="m433.16 457h69.57"/><ellipse cx="446.41" cy="499" rx="12.423" ry="12.454"/><ellipse cx="479.54" cy="499" rx="12.423" ry="12.454"/></g></g></svg>