<svg viewBox="0 0 733 480" xmlns="http://www.w3.org/2000/svg"><g fill="#000" fill-rule="evenodd" transform="translate(0-48)"><path d="m107.15 67.45l124.1 55.47 1.558.696h1.706 264.96 1.706l1.558-.696 124.1-55.47c7.919-3.539 7.668-13.752-.337-16.972l-124.04-49.897-1.437-.578h-266.51l-2.986.578-124.04 49.897c-7.998 3.217-8.258 13.432-.337 16.972m130.35-52.03l-2.986.578h264.96l-2.986-.578 109.28 43.918-109.56 48.967 3.264-.696h-264.96l3.264.696c0 0-73.7-32.494-110.05-48.741l109.77-44.14"/><path d="m113.25 52.647c-4.427-1.978-9.881-.773-13.06 2.894l-97.35 112.13c-3.933 4.53-3.447 11.384 1.065 15.328l125.26 109.48c5.01 4.383 12.535 3.094 15.814-2.692l96.5-170.23 4.341-7.657-8.04-3.592-124.53-55.66m109.98 66.66l-88.75 156.56-116.19-101.59 91.68-105.61 113.26 50.631"/><path d="m713.41 173.75l-115.42 100.62-88.6-154.12 114.53-48.912 89.49 102.41m-85.13-121.67l-5.342 2.281-128.15 54.729-8.284 3.538 4.491 7.808 98.37 171.04 4.839 8.414 7.335-6.356 127.07-110.11c4.562-3.953 5.02-10.835 1.061-15.368l-97.56-111.59-3.823-4.373"/><path d="m131.44 291.13l228.31 359.32 6.751 10.625 6.753-10.624 227.94-358.62 7.798-12.269-14.538-.022-456.24-.693-14.588-.022 7.823 12.312m448.48 4.32l-220.18 346.41h13.504l-220.51-347.04 427.18.626"/><path d="m373.77 650.5l354.98-468.29c.452-.596.823-1.143 1.145-1.73.333-.606.603-1.221.813-2.01.22-.827.332-1.706.253-2.734-.146-1.904-.942-3.817-2.589-5.326-1.632-1.495-3.577-2.119-5.461-2.115-1.012.002-1.865.176-2.66.451-.761.262-1.349.572-1.925.942-.56.36-1.079.767-1.641 1.256l-126.15 109.98-.871.759-.62.974-228.4 358.71 13.12 9.13m.373-.536l228.4-358.71-1.491 1.733 66.799-56.928-306.83 404.77 13.12 9.13"/><path d="m358.24 645.55c-.164-.75-.164-.75-.185-2.271.237-2.328.237-2.328 3.03-5.772 4.217-1.968 4.217-1.968 6.82-1.495 1.601.532 1.601.532 2.315.964.899.628.899.628 1.214.925.43.44-309.28-404-309.28-404l67.02 58.58c.634.555 1.818 1.924 2.275 2.632l227.27 351.97c-.2-.551-.2-.551-.481-1.532m-213.35-359.12c-1.266-1.96-3.429-4.463-5.187-6l-125.26-109.48c-.553-.484-12.227 10.08-11.779 10.66l356.25 466.14c.324.424.601.77.855 1.064 1.113 1.125 1.113 1.125 2.049 1.779.73.441.73.441 2.343.977 2.614.474 2.614.474 6.838-1.497 2.794-3.45 2.794-3.45 3.033-5.79-.021-1.535-.021-1.535-.188-2.303-.293-1.027-.293-1.027-.486-1.47-.667-1.28-.899-1.657-1.187-2.104l-227.27-351.97"/></g></svg>