<svg viewBox="0 0 571 480" xmlns="http://www.w3.org/2000/svg"><g fill="none" fill-rule="evenodd" transform="translate(15-31)" stroke="#000" stroke-width="15"><path d="m351.82 0c54.22 0 81.33 0 110.52 9.227 31.867 11.599 56.965 36.697 68.56 68.56 9.227 29.18 9.227 56.3 9.227 110.52v163.51c0 54.22 0 81.33-9.227 110.52-11.599 31.867-36.697 56.965-68.56 68.56-29.19 9.232-56.29 9.232-110.52 9.232h-163.51c-54.22 0-81.33 0-110.52-9.232-31.867-11.595-56.965-36.693-68.56-68.56-9.227-29.19-9.227-56.29-9.227-110.52v-163.51c0-54.22 0-81.33 9.227-110.52 11.599-31.867 36.697-56.965 68.56-68.56 29.18-9.227 56.29-9.227 110.52-9.227h163.51"/><ellipse cx="177.79" cy="218.3" rx="101.27" ry="101.27"/><path d="m399.63 391.82c31.97-10.846 54.975-41.11 54.975-76.74 0-44.746-36.27-81.02-81.02-81.02-2.475 0-4.924.111-7.343.328-15.01-37.14-51.41-63.34-93.93-63.34-55.932 0-101.27 45.34-101.27 101.27 0 1.098.017 2.191.052 3.281-28.21 5.256-49.564 30-49.564 59.734 0 30.26 22.12 55.36 51.08 59.996 2.398.503 4.883.768 7.43.768h202.56c6.162 0 11.962-1.548 17.03-4.277"/><ellipse opacity=".3" cx="272.31" cy="272.31" rx="101.27" ry="101.27"/><circle opacity=".3" cx="373.59" cy="315.07" r="81.02"/><ellipse opacity=".3" cx="182.29" cy="335.33" rx="60.764" ry="60.764"/><rect opacity=".3" x="144.03" y="324.08" width="274.56" height="72.02" rx="120" ry="36.01"/></g></svg>