<svg viewBox="0 0 364 480" xmlns="http://www.w3.org/2000/svg" xmlns:xlink="http://www.w3.org/1999/xlink"><defs><path id="0" d="m0 .28h248.28v248.36h-248.28z"/><mask id="1" fill="#fff"><use xlink:href="#0"/></mask></defs><g fill="none" fill-rule="evenodd" transform="translate(8-77)"><g stroke="#000" stroke-linecap="square" stroke-width="8"><path d="m3.142 115.01c8.165-56.4 12.758-108.65 12.758-108.65.324-3.512 3.445-6.359 6.992-6.359h178.89c3.538 0 6.767 2.839 7.213 6.345 0 0 6.588 51.46 13.29 108.66 6.702 57.2-2.116 6.76-2.116 9.604.281.041-214.59 1.117-214.87 0 0-2.74-10.328 46.801-2.162-9.604" transform="translate(54.4)"/><path d="m.207 115.49c12.999-108.76 12.713-109.13 12.713-109.13.35-3.514 3.494-6.363 7.04-6.363h178.92c3.538 0 6.538 2.859 6.824 6.386 0 0-.986 2.023 13.682 109.1.181 3.544-2.116 6.788-2.116 9.644.281.041-214.63 1.122-214.9 0 0-2.752-2.314-5.833-2.163-9.644" transform="matrix(-1 0 0-1 277 633)"/><path d="m331.2 375.39c0-50.49 7.077-46.981 7.077-46.981 2.277-1.938 4.123-1 4.123 2.1v89.76c0 3.098-2.186 4.462-4.139 2.075 0 0-7.06 3.534-7.06-46.956"/><rect y="120.84" width="333.6" height="389.72" rx="64.8"/><path d="m0 32.411c0-38.26 18.446-32.13 18.446-32.13 3.509.136 6.354 3.11 6.354 6.652v50.958c0 3.538-2.845 6.779-6.354 6.652 0 0-18.446 6.131-18.446-32.13" transform="translate(327.2 212.87)"/><rect x="42.4" y="158.45" width="249.6" height="312.1" rx="1.6"/></g><g transform="translate(43.12 189.91)" fill="#000"><path d="m116 10.117c-1.869.131-3.726.307-5.569.527l1.226 9.983-1.565.192-1.225-9.977c-1.859.248-3.705.54-5.535.876l1.919 9.872-1.548.301-1.92-9.877c-1.836.363-3.657.771-5.46 1.221l2.436 9.771-1.53.381-2.434-9.76c-1.788.473-3.56.987-5.313 1.543l3.944 12.14-1.514.492-3.944-12.14c-1.797.598-3.574 1.238-5.33 1.921l3.772 9.335-1.462.591-3.775-9.344c-1.733.702-3.446 1.445-5.136 2.228l4.26 9.135-1.429.666-4.257-9.128c-1.689.811-3.354 1.662-4.996 2.552l4.885 8.813-1.379.764-4.887-8.816c-1.631.914-3.238 1.866-4.818 2.856l5.346 8.555-1.337.836-5.339-8.545c-1.593 1.029-3.16 2.096-4.697 3.2l9.34 12.855-1.286.934-9.339-12.854c-1.484 1.097-2.94 2.229-4.367 3.394l6.486 7.73-1.208 1.014-6.493-7.738c-1.432 1.202-2.834 2.439-4.205 3.709l6.895 7.394-1.153 1.075-6.891-7.39c-1.357 1.292-2.682 2.616-3.975 3.973l7.401 6.901-1.075 1.153-7.405-6.905c-1.272 1.371-2.51 2.774-3.714 4.206l7.771 6.521-1.014 1.208-7.764-6.515c-1.199 1.467-2.362 2.964-3.489 4.489l10.308 7.489-.935 1.288-10.308-7.49c-1.078 1.503-2.12 3.034-3.126 4.59l8.629 5.392-.836 1.337-8.64-5.399c-.994 1.585-1.95 3.197-2.867 4.833l8.925 4.947-.764 1.379-8.922-4.946c-.894 1.648-1.749 3.321-2.564 5.02l9.261 4.319-.666 1.429-9.268-4.322c-.787 1.698-1.533 3.418-2.238 5.159l9.497 3.837-.591 1.462-9.488-3.833c-.685 1.763-1.329 3.547-1.928 5.352l15.15 4.924-.491 1.512-15.15-4.924c-.56 1.767-1.078 3.553-1.554 5.357l9.945 2.48-.381 1.53-9.955-2.482c-.452 1.814-.86 3.646-1.224 5.493l10.07 1.958-.301 1.548-10.06-1.956c-.337 1.843-.629 3.701-.877 5.573l10.174 1.249-.192 1.565-10.178-1.25c-.219 1.855-.394 3.723-.524 5.604l10.228.715-.11 1.573-10.216-.714c-.103 1.866-.162 3.743-.174 5.632h12.733v1.592h-12.733c.013 1.888.071 3.766.174 5.632l10.216-.714.11 1.573-10.228.715c.13 1.881.305 3.749.524 5.604l10.178-1.25.192 1.565-10.174 1.249c.247 1.872.54 3.73.877 5.573l10.06-1.956.301 1.548-10.07 1.958c.364 1.847.772 3.679 1.224 5.493l9.955-2.482.381 1.53-9.945 2.48c.475 1.803.994 3.589 1.554 5.357l15.15-4.924.491 1.512-15.15 4.924c.6 1.804 1.243 3.589 1.928 5.352l9.488-3.833.591 1.462-9.497 3.837c.705 1.741 1.451 3.462 2.238 5.159l9.268-4.322.666 1.429-9.261 4.319c.815 1.696 1.67 3.369 2.564 5.02l8.922-4.946.764 1.379-8.925 4.947c.917 1.636 1.873 3.248 2.867 4.833l8.64-5.399.836 1.337-8.629 5.392c1.01 1.556 2.048 3.087 3.126 4.59l10.308-7.49.935 1.288-10.308 7.489c1.126 1.526 2.29 3.02 3.489 4.489l7.764-6.515 1.014 1.208-7.771 6.521c1.204 1.432 2.443 2.835 3.714 4.206l7.405-6.905 1.075 1.153-7.401 6.901c1.293 1.356 2.618 2.681 3.975 3.973l6.891-7.39 1.153 1.075-6.895 7.394c1.371 1.27 2.773 2.506 4.205 3.709l6.493-7.738 1.208 1.014-6.486 7.73c1.428 1.166 2.884 2.297 4.367 3.394l9.339-12.854 1.286.934-9.34 12.855c1.538 1.104 3.104 2.172 4.697 3.2l5.339-8.545 1.337.836-5.346 8.555c1.581.99 3.187 1.943 4.818 2.856l4.887-8.816 1.379.764-4.885 8.813c1.641.89 3.307 1.741 4.996 2.552l4.257-9.128 1.429.666-4.26 9.135c1.69.783 3.402 1.526 5.136 2.228l3.775-9.344 1.462.591-3.772 9.335c1.756.683 3.533 1.324 5.33 1.921l3.944-12.14 1.514.492-3.944 12.14c1.753.556 3.524 1.071 5.313 1.543l2.434-9.76 1.53.381-2.436 9.771c1.804.45 3.624.857 5.46 1.221l1.92-9.877 1.548.301-1.919 9.872c1.83.336 3.675.628 5.535.876l1.225-9.977 1.565.192-1.226 9.983c1.843.22 3.7.396 5.569.527l.702-10.03 1.573.11-.701 10.02c1.868.106 3.748.167 5.638.182v-15.917h1.59v15.919c1.861-.01 3.711-.065 5.55-.163l-.702-10.04 1.573-.11.703 10.06c1.87-.125 3.728-.296 5.572-.51l-1.231-10.03 1.565-.192 1.231 10.02c1.862-.242 3.709-.529 5.541-.859l-1.931-9.936 1.548-.301 1.933 9.946c1.839-.358 3.662-.76 5.468-1.204l-2.458-9.857 1.53-.381 2.456 9.85c1.905-.497 3.791-1.042 5.657-1.634l-3.944-12.14 1.514-.492 3.944 12.14c1.689-.562 3.36-1.162 5.01-1.799l-3.821-9.457 1.462-.591 3.826 9.471c1.738-.698 3.455-1.437 5.149-2.216l-4.324-9.274 1.429-.666 4.323 9.272c1.694-.808 3.366-1.656 5.01-2.543l-4.969-8.965 1.379-.764 4.973 8.972c1.637-.911 3.248-1.861 4.834-2.848l-5.449-8.72 1.337-.836 5.444 8.713c1.62-1.04 3.213-2.12 4.776-3.238l-9.435-12.986 1.286-.934 9.435 12.987c1.471-1.083 2.914-2.2 4.33-3.35l-6.635-7.907 1.208-1.014 6.644 7.918c1.438-1.201 2.846-2.438 4.224-3.707l-7.06-7.576 1.153-1.075 7.06 7.574c1.364-1.293 2.697-2.619 3.997-3.976l-7.594-7.082 1.075-1.153 7.601 7.088c1.278-1.372 2.522-2.776 3.733-4.209l-7.986-6.701 1.014-1.208 7.981 6.697c1.252-1.525 2.465-3.082 3.638-4.671l-10.308-7.489.935-1.288 10.308 7.49c1.04-1.451 2.048-2.927 3.02-4.427l-8.89-5.555.836-1.337 8.903 5.563c.999-1.588 1.961-3.203 2.883-4.842l-9.204-5.102.764-1.379 9.204 5.102c.901-1.654 1.762-3.332 2.582-5.03l-9.56-4.458.666-1.429 9.569 4.462c.792-1.702 1.543-3.426 2.252-5.173l-9.812-3.964.591-1.462 9.804 3.961c.694-1.778 1.345-3.578 1.951-5.398l-15.404-5.01.491-1.512 15.405 5.01c.561-1.766 1.08-3.551 1.557-5.353l-10.289-2.565.381-1.53 10.3 2.568c.455-1.82.866-3.657 1.232-5.511l-10.423-2.026.301-1.548 10.417 2.025c.339-1.851.634-3.717.884-5.598l-10.534-1.293.192-1.565 10.539 1.294c.221-1.861.397-3.736.527-5.623l-10.593-.741.11-1.573 10.581.74c.104-1.874.163-3.76.176-5.657h-12.733v-1.592h12.733c-.013-1.897-.072-3.783-.176-5.657l-10.581.74-.11-1.573 10.593-.741c-.131-1.887-.307-3.762-.527-5.623l-10.539 1.294-.192-1.565 10.534-1.293c-.249-1.881-.544-3.747-.884-5.598l-10.417 2.025-.301-1.548 10.423-2.026c-.366-1.853-.777-3.691-1.232-5.511l-10.3 2.568-.381-1.53 10.289-2.565c-.477-1.802-.996-3.587-1.557-5.353l-15.405 5.01-.491-1.512 15.404-5.01c-.606-1.82-1.257-3.62-1.951-5.398l-9.804 3.961-.591-1.462 9.812-3.964c-.709-1.746-1.46-3.471-2.252-5.173l-9.569 4.462-.666-1.429 9.56-4.458c-.82-1.702-1.681-3.38-2.582-5.03l-9.204 5.102-.764-1.379 9.204-5.102c-.922-1.64-1.884-3.254-2.883-4.842l-8.903 5.563-.836-1.337 8.89-5.555c-.973-1.5-1.98-2.977-3.02-4.427l-10.308 7.49-.935-1.288 10.308-7.489c-1.173-1.589-2.386-3.147-3.638-4.671l-7.981 6.697-1.014-1.208 7.986-6.701c-1.21-1.434-2.455-2.837-3.733-4.209l-7.601 7.088-1.075-1.153 7.594-7.082c-1.3-1.358-2.632-2.684-3.997-3.976l-7.06 7.574-1.153-1.075 7.06-7.576c-1.377-1.269-2.785-2.505-4.224-3.707l-6.644 7.918-1.208-1.014 6.635-7.907c-1.416-1.15-2.86-2.267-4.33-3.35l-9.435 12.987-1.286-.934 9.435-12.986c-1.563-1.118-3.156-2.198-4.776-3.238l-5.444 8.713-1.337-.836 5.449-8.72c-1.586-.987-3.198-1.937-4.834-2.848l-4.973 8.972-1.379-.764 4.969-8.965c-1.647-.887-3.319-1.735-5.01-2.543l-4.323 9.272-1.429-.666 4.324-9.274c-1.695-.779-3.412-1.518-5.149-2.216l-3.826 9.471-1.462-.591 3.821-9.457c-1.653-.637-3.324-1.237-5.01-1.799l-3.944 12.14-1.514-.492 3.944-12.14c-1.865-.591-3.751-1.136-5.657-1.634l-2.456 9.85-1.53-.381 2.458-9.857c-1.806-.445-3.629-.846-5.468-1.204l-1.933 9.946-1.548-.301 1.931-9.936c-1.832-.33-3.68-.617-5.541-.859l-1.231 10.02-1.565-.192 1.231-10.03c-1.844-.214-3.702-.384-5.572-.51l-.703 10.06-1.573-.11.702-10.04c-1.839-.098-3.689-.153-5.55-.163v15.919h-1.59v-15.917c-1.891.015-3.771.076-5.638.182l.701 10.02-1.573.11-.702-10.03m-115.99 113.55c.255-40.672 20.06-76.71 50.48-99.17l-.019-.026 1.286-.934.018.025c20.14-14.479 44.79-23.07 71.44-23.27v-.003h1.59c67.994.354 123.05 55.39 123.48 123.38h.006v1.592h-.006c-.427 67.998-55.49 123.03-123.48 123.38l-1.59.002v-.003c-26.648-.196-51.3-8.791-71.44-23.27l-.018.025-1.286-.934.019-.026c-30.425-22.468-50.23-58.5-50.48-99.17h-.006v-1.592h.006" mask="url(#1)"/><ellipse mask="url(#1)" cx="124.36" cy="124.33" rx="50.929" ry="50.946"/></g></g></svg>